<svg width="1528" height="1091" viewBox="0 0 1528 1091" fill="none" xmlns="http://www.w3.org/2000/svg">
<rect width="1527" height="1091" fill="#3734A9"/>
<path opacity="0.1" d="M1380.6 38.2169C1388.33 33.7511 1397.86 33.7511 1405.6 38.2169L1496.73 90.8326C1504.47 95.2984 1509.23 103.552 1509.23 112.483V217.715C1509.23 226.646 1504.47 234.899 1496.73 239.365L1405.6 291.981C1397.86 296.447 1388.33 296.447 1380.6 291.981L1289.47 239.365C1281.73 234.899 1276.97 226.646 1276.97 217.715V112.483C1276.97 103.552 1281.73 95.2984 1289.47 90.8326L1380.6 38.2169Z" fill="white"/>
<path opacity="0.1" d="M56.6342 256.595C61.2752 253.916 66.9932 253.916 71.6342 256.595L107.586 277.352C112.227 280.031 115.086 284.983 115.086 290.342V331.856C115.086 337.215 112.227 342.167 107.586 344.846L71.6342 365.603C66.9932 368.282 61.2752 368.282 56.6342 365.603L20.6826 344.846C16.0415 342.167 13.1825 337.215 13.1825 331.856V290.342C13.1825 284.983 16.0415 280.031 20.6825 277.352L56.6342 256.595Z" fill="white"/>
<path opacity="0.1" d="M712.818 15.9591C717.459 13.2796 723.177 13.2796 727.818 15.9591L749.081 28.2353C753.722 30.9147 756.581 35.8666 756.581 41.2256V65.7779C756.581 71.1369 753.722 76.0888 749.081 78.7683L727.818 91.0444C723.177 93.7239 717.459 93.7239 712.818 91.0444L691.555 78.7683C686.914 76.0888 684.055 71.1369 684.055 65.7779V41.2256C684.055 35.8666 686.914 30.9147 691.555 28.2353L712.818 15.9591Z" fill="white"/>
</svg>
