<svg width="138" height="26" viewBox="0 0 138 26" fill="none" xmlns="http://www.w3.org/2000/svg">
<path d="M2.95472 20.412C1.92602 20.4142 0.975683 19.8628 0.4672 18.9685C-0.0339529 18.0798 -0.00390077 16.9871 0.545342 16.1272L5.66798 8.08291C6.20176 7.20273 7.16783 6.67782 8.19675 6.70891C9.22491 6.73355 10.1601 7.31002 10.6441 8.21749C11.1216 9.12046 11.062 10.2069 10.49 11.0545L5.37061 19.0988C4.84298 19.921 3.93164 20.4163 2.95472 20.412Z" fill="#F62B54"/>
<path d="M11.7415 20.4116C10.7083 20.4116 9.7576 19.8592 9.25836 18.9714C8.75832 18.0851 8.78837 16.9951 9.3365 16.1377L14.4494 8.11186C14.9754 7.21905 15.9444 6.68181 16.9803 6.70856C18.0222 6.73135 18.9664 7.31416 19.444 8.22581C19.9182 9.13747 19.8488 10.2304 19.2595 11.0758L14.1477 19.1017C13.6217 19.9203 12.7146 20.4142 11.7415 20.4116Z" fill="#FFCC00"/>
<path d="M20.3316 20.4799C21.7882 20.4799 22.9689 19.3239 22.9689 17.8979C22.9689 16.472 21.7882 15.316 20.3316 15.316C18.8751 15.316 17.6943 16.472 17.6943 17.8979C17.6943 19.3239 18.8751 20.4799 20.3316 20.4799Z" fill="#00CA72"/>
<path d="M134.903 15.4646C135.699 15.4646 136.176 16.0311 136.176 16.959V20.139H137.258V16.8863C137.258 15.3083 136.514 14.3934 135.116 14.3934C134.569 14.3934 133.701 14.5431 133.183 15.5492C132.938 14.9446 132.381 14.5235 131.732 14.4531C131.532 14.4164 131.328 14.4043 131.125 14.4172C130.68 14.4531 129.887 14.7298 129.591 15.3571V14.5138H128.508V20.139H129.591V17.1034C129.591 15.9226 130.364 15.4646 131.138 15.4646C131.863 15.4646 132.339 16.0191 132.339 16.9471V20.139H133.416V17.1034C133.416 16.1635 133.98 15.4537 134.903 15.4646ZM124.532 19.1991C125.027 19.2099 125.505 19.0124 125.851 18.6543C126.198 18.2961 126.383 17.8088 126.364 17.3085C126.364 16.1754 125.531 15.4646 124.532 15.4646C123.533 15.4646 122.7 16.1754 122.7 17.3085C122.681 17.8077 122.865 18.2939 123.211 18.651C123.556 19.0092 124.031 19.2078 124.524 19.1991H124.532ZM124.532 20.254C122.95 20.254 121.629 19.0851 121.629 17.302C121.629 15.5188 122.95 14.3869 124.532 14.3869C126.115 14.3869 127.447 15.5188 127.447 17.302C127.447 19.0851 126.107 20.2594 124.525 20.2594L124.532 20.254ZM116.056 17.302L116.045 17.3085C116.045 15.5253 117.401 14.3934 118.994 14.3869C119.804 14.3712 120.582 14.6993 121.135 15.2898L120.315 15.9888C119.963 15.6431 119.487 15.4524 118.994 15.4591C117.996 15.4591 117.127 16.17 117.127 17.302C117.127 18.0671 117.582 18.7563 118.28 19.0493C118.978 19.3424 119.781 19.1796 120.315 18.6391L121.147 19.338C120.592 19.9346 119.809 20.2675 118.994 20.254C117.413 20.254 116.056 19.0851 116.056 17.302ZM112.591 19.0591C112.589 18.8605 112.665 18.6691 112.804 18.527C112.943 18.3849 113.132 18.3038 113.331 18.3015C113.53 18.3038 113.719 18.3849 113.858 18.527C113.997 18.6691 114.074 18.8605 114.071 19.0591C114.051 19.4544 113.727 19.7659 113.331 19.77C112.935 19.7659 112.611 19.4544 112.591 19.0591Z" fill="#333333"/>
<path d="M115.552 7.36335H111.698L108.997 14.3278L106.309 7.36335H102.455L107.141 18.3684L104.227 25.6442H108.052L115.552 7.36335ZM92.1136 13.4845C92.1136 15.2427 93.6504 16.3996 95.1601 16.3996C96.6437 16.3996 98.1012 15.323 98.1012 13.4834C98.1012 11.6438 96.6437 10.5661 95.1601 10.5661C93.6504 10.5661 92.1136 11.7241 92.1136 13.4834V13.4845ZM98.1012 19.6295V18.237C97.3198 19.42 95.4965 19.8672 94.561 19.8672C91.4635 19.8672 88.365 17.4252 88.365 13.4834C88.365 9.54265 91.4624 7.10071 94.561 7.10071C95.3413 7.10071 97.1646 7.36118 98.1012 8.72867V7.36769H101.694V19.6316L98.1012 19.6306V19.6295ZM87.3426 19.6295H83.7502V18.1057C83.1501 19.2344 81.6947 19.8921 80.1839 19.8921C77.0593 19.8921 74.2994 17.397 74.2994 13.5333C74.2994 9.59691 77.0593 7.09854 80.1839 7.09854C81.6925 7.09854 83.1522 7.72802 83.7502 8.85782V0.682213H87.3426V19.6295ZM83.6721 13.4563C83.6721 11.6178 82.3448 10.54 80.8612 10.54C79.3244 10.54 78.048 11.6959 78.048 13.4563C78.048 15.2731 79.3244 16.4235 80.8601 16.4235C82.3719 16.4257 83.6721 15.2166 83.6721 13.4563ZM65.4173 13.1393C65.4173 11.2748 66.381 10.6442 67.6562 10.6442C68.8794 10.6442 69.765 11.4582 69.765 13.0862V19.6273H73.3834V12.2993C73.3834 8.80681 71.6643 7.09854 68.9304 7.09854C67.4989 7.09854 66.0674 7.91252 65.4162 9.1476V7.36335H61.7999V19.6273H65.4173V13.1393ZM54.4524 19.8379C51.0164 19.8379 48.1501 17.3167 48.1501 13.4552C48.1501 9.59149 51.0131 7.09528 54.4524 7.09528C57.8918 7.09528 60.7798 9.59149 60.7798 13.4552C60.7798 17.3189 57.8885 19.8389 54.4524 19.8389V19.8379ZM54.4524 16.2672C55.961 16.2672 57.2124 15.1624 57.2124 13.4563C57.2124 11.8012 55.9621 10.6714 54.4524 10.6714C53.7178 10.6599 53.0107 10.9506 52.4967 11.4756C51.9798 12.0032 51.699 12.7179 51.7185 13.4563C51.7196 15.1645 52.9688 16.2672 54.4524 16.2672ZM41.6632 10.6453C42.73 10.6453 43.6677 11.4864 43.6677 13.0873V19.6295H47.2601V12.664C47.2601 8.96092 45.4596 7.09637 42.5738 7.09637C41.7164 7.09637 40.1014 7.35684 38.9293 9.27566C38.2521 7.85717 36.9508 7.12133 35.0276 7.12133C33.6639 7.11439 32.4221 7.90548 31.852 9.14434V7.36444H28.2314V19.6284H31.8488V13.1393C31.8488 11.2748 32.8646 10.6442 33.9575 10.6442C34.9994 10.6442 35.9349 11.4582 35.9621 13.008V19.6284H39.5805V13.1393C39.5805 11.3562 40.5182 10.6464 41.6632 10.6464V10.6453Z" fill="#333333"/>
</svg>
