<svg width="138" height="29" viewBox="0 0 138 29" fill="none" xmlns="http://www.w3.org/2000/svg">
<path d="M136.68 9.84768C137.756 10.7176 136.617 12.0936 135.668 11.3977C134.498 10.6544 131.841 10.3064 131.508 11.9512C131.081 14.5451 137.962 13.0584 137.851 17.2655C137.74 21.2829 131.92 21.3778 129.737 19.5747C129.215 19.1478 129.231 18.4518 129.516 18.0247C129.927 17.6136 130.386 17.4712 130.923 17.914C132.22 18.7997 135.557 19.464 135.795 17.2181C135.589 14.8772 129.01 16.2849 129.5 11.7931C129.864 8.72474 134.498 8.17111 136.68 9.84768ZM126.304 10.4645V16.19C126.304 22.1053 116.767 22.1053 116.767 16.19V10.4645C116.767 9.04112 118.839 8.9778 118.839 10.4645V16.19C118.839 19.3058 124.232 19.4957 124.232 16.19V10.4645C124.232 9.05683 126.304 8.94613 126.304 10.4645ZM60.9968 9.02529C63.7646 9.16753 66.659 11.0813 66.659 14.8299C66.659 18.5783 63.7646 20.5238 60.9968 20.5238C58.0707 20.6503 55.034 18.7048 55.034 14.8299C55.034 10.939 58.0707 9.02529 60.9968 9.02529ZM74.9313 9.42059C78.9487 9.42059 79.7711 14.7982 76.4181 16.1425L78.5216 18.7048C79.344 19.9228 77.6991 21.0931 76.7502 19.8911L74.3619 16.4748H71.8787V19.3375C71.8787 20.7135 69.7751 20.761 69.7751 19.3691V10.3855C69.7751 9.83184 70.2022 9.42059 70.7242 9.42059H74.9313ZM42.1589 9.27835C42.6176 9.27835 42.8865 9.54724 43.1554 9.84768L46.6349 14.5451L50.2411 9.67365C50.763 9.0253 52.0442 9.27835 52.0442 10.3696V19.2743C52.0442 19.9701 51.6013 20.3656 51.0952 20.3656C50.5258 20.3656 50.0829 19.9701 50.0829 19.2743V13.4222L47.4575 16.7437C46.888 17.4395 46.1763 17.4395 45.6544 16.7437L43.2977 13.4222V19.2743C43.2977 19.9701 42.7283 20.3656 42.1589 20.3656C41.6528 20.3656 41.21 19.9701 41.21 19.2743V10.3696C41.21 9.54725 41.9059 9.27835 42.1589 9.27835ZM86.3985 9.27835C88.4547 9.27835 90.3052 10.6544 90.3052 13.2957C90.3052 15.7946 88.4547 17.1865 86.3985 17.1865H83.7572V19.2743C83.7572 19.9701 83.3143 20.3656 82.7449 20.3656C82.223 20.3656 81.6694 19.9701 81.6694 19.2743V10.3696C81.6694 9.84768 82.0807 9.27835 82.7449 9.27835H86.3985ZM101.504 9.42058C102.057 9.42058 102.484 9.83184 102.484 10.4013V19.385C102.484 19.9385 102.057 20.3656 101.504 20.3656C100.934 20.3656 100.428 19.9385 100.428 19.385V15.9212H95.272V19.385C95.272 19.9385 94.8608 20.3656 94.3072 20.3656C93.5955 20.3656 93.1842 19.9385 93.1842 19.385V10.4013C93.1842 9.83185 93.5955 9.42058 94.3072 9.42058C94.8608 9.42058 95.272 9.83184 95.272 10.4013V13.8493H100.428V10.4013C100.428 9.83185 100.934 9.42058 101.504 9.42058ZM112.512 9.42058C113.967 9.42058 113.936 11.4767 112.512 11.4767H107.957V13.8493H111.943C113.35 13.8493 113.35 15.9212 111.943 15.9212H107.957V18.2936H112.781C114.22 18.2936 114.331 20.3656 112.781 20.3656H106.834C106.281 20.3656 105.854 19.9385 105.854 19.385V10.4013C105.854 9.83185 106.281 9.42058 106.834 9.42058H112.512ZM60.8227 11.0813C59.0513 11.0813 57.1218 12.3309 57.1218 14.8299C57.1218 17.313 59.0513 18.5783 60.8227 18.5783C62.6417 18.5783 64.5871 17.313 64.5871 14.8299C64.5871 12.3309 62.6417 11.0813 60.8227 11.0813ZM86.3985 11.2712H83.7572V15.2095H86.3985C87.4582 15.2095 88.2965 14.2763 88.2965 13.2957C88.2965 12.1886 87.4582 11.2712 86.3985 11.2712ZM74.9313 11.3344H71.8787V14.6558H74.9313C76.9874 14.6558 77.1139 11.3344 74.9313 11.3344Z" fill="#3DB5E6"/>
<path d="M28.6636 17.7239C27.1216 23.9189 21.4797 28.3264 14.8349 28.3264C8.15997 28.3264 2.56669 23.6581 1.08789 17.4375C2.86607 17.4375 4.5284 17.4456 5.30015 17.4456C5.66421 17.4456 5.73491 17.4519 5.75597 17.4504C6.33666 17.4218 7.06478 17.2302 7.54919 16.0522L9.39506 11.2236L13.4945 21.0938C13.8631 21.8806 14.4784 21.8248 14.8454 21.8248H14.88C15.5961 21.8248 15.9075 21.5739 16.1798 21.0549L20.8103 11.2976L22.3899 15.695L22.4862 15.9079C22.8201 16.6406 23.0604 17.3642 23.8869 17.4588C24.0573 17.4783 26.0358 17.4437 28.7031 17.4437C28.7031 17.4437 28.7031 17.4608 28.6636 17.7239Z" fill="#3DB5E6"/>
<path d="M29.1163 14.0751C29.1163 14.1489 29.1163 14.3342 29.1148 14.3342H29.1118H24.8545L22.3707 7.39596C22.1495 6.87996 21.8171 6.1064 20.8482 6.1064C20.2555 6.1064 19.72 6.59592 19.4161 7.40377L14.9135 17.8332L10.5794 7.46703C10.1551 6.54636 9.86178 6.11336 9.01331 6.11336C8.43713 6.11336 8.0144 6.3256 7.55406 7.41627L4.98158 14.4373L0.707633 14.4328C0.704622 14.326 0.703125 14.2192 0.703125 14.1124C0.703125 6.30766 7.03054 0 14.8352 0C22.64 0 29.1163 6.27043 29.1163 14.0751Z" fill="#D8292F"/>
</svg>
