<svg width="138" height="19" viewBox="0 0 138 19" fill="none" xmlns="http://www.w3.org/2000/svg">
<path d="M59.2079 11.8481H68.2703L63.4784 4.13868L54.6836 18.0777H50.6809L61.3784 1.33396C61.8435 0.657438 62.6186 0.248718 63.4784 0.248718C64.3099 0.248718 65.0851 0.643351 65.5361 1.30577L76.2758 18.0777H72.2731L70.3845 14.9629H61.2092L59.2079 11.8481ZM100.785 14.9629V0.417847H97.3888V16.3864C97.3888 16.8234 97.5579 17.2462 97.8821 17.5703C98.2062 17.8945 98.6431 18.0777 99.1223 18.0777H114.612L116.613 14.9629H100.785ZM44.5923 12.3555C47.8904 12.3555 50.5682 9.69176 50.5682 6.39373C50.5682 3.09572 47.8904 0.417847 44.5923 0.417847H29.7329V18.0777H33.1282V3.53264H44.3668C45.9454 3.53264 47.2138 4.81519 47.2138 6.39373C47.2138 7.97227 45.9454 9.25484 44.3668 9.25484L34.7913 9.24074L44.9305 18.0777H49.8635L43.042 12.3555H44.5923ZM8.83143 18.0777C3.95624 18.0777 0 14.1314 0 9.25484C0 4.37828 3.95624 0.417847 8.83143 0.417847H19.0961C23.9726 0.417847 27.926 4.37828 27.926 9.25484C27.926 14.1314 23.9726 18.0777 19.0961 18.0777H8.83143ZM18.8678 14.9629C22.0263 14.9629 24.5844 12.4119 24.5844 9.25484C24.5844 6.09776 22.0263 3.53264 18.8678 3.53264H9.0583C5.90122 3.53264 3.34168 6.09776 3.34168 9.25484C3.34168 12.4119 5.90122 14.9629 9.0583 14.9629H18.8678ZM83.3651 18.0777C78.4885 18.0777 74.5282 14.1314 74.5282 9.25484C74.5282 4.37828 78.4885 0.417847 83.3651 0.417847H95.5565L93.5692 3.53264H83.5906C80.4335 3.53264 77.8685 6.09776 77.8685 9.25484C77.8685 12.4119 80.4335 14.9629 83.5906 14.9629H95.8383L93.837 18.0777H83.3651ZM124.9 14.9629C122.293 14.9629 120.08 13.2153 119.404 10.8052H133.921L135.922 7.69039H119.404C120.08 5.2944 122.293 3.53264 124.9 3.53264H134.865L136.88 0.417847H124.675C119.798 0.417847 115.838 4.37828 115.838 9.25484C115.838 14.1314 119.798 18.0777 124.675 18.0777H135.147L137.148 14.9629H124.9Z" fill="#EA1B22"/>
</svg>
