<svg width="138" height="22" viewBox="0 0 138 22" fill="none" xmlns="http://www.w3.org/2000/svg">
<path d="M130.621 9.88631V12.7458H132.63V15.5829C132.636 15.8002 132.626 16.0321 132.596 16.2317L132.579 16.3286C132.576 16.3502 132.572 16.3724 132.567 16.3951L132.551 16.4649C132.548 16.4768 132.545 16.4887 132.541 16.5008L132.518 16.5744C132.337 17.0968 131.793 17.7588 130.57 17.7588C129.268 17.7588 128.745 16.9989 128.602 16.4649L128.586 16.3951L128.573 16.3286C128.537 16.1098 128.522 15.8364 128.522 15.5829V6.622C128.522 6.34026 128.539 6.03484 128.59 5.78603L128.624 5.63483C128.626 5.62435 128.629 5.61371 128.632 5.60291L128.651 5.53632C128.655 5.52494 128.658 5.51343 128.662 5.50179L128.687 5.43061C128.873 4.93551 129.364 4.27611 130.56 4.27611C131.483 4.27611 131.979 4.65214 132.245 5.04078L132.292 5.1137C132.307 5.138 132.321 5.16226 132.334 5.1864L132.371 5.25832L132.404 5.32894L132.432 5.39773L132.456 5.46415L132.477 5.52767L132.494 5.58777L132.508 5.6439L132.52 5.69553C132.525 5.72121 132.529 5.74847 132.534 5.77681L132.545 5.86458C132.547 5.87959 132.549 5.89474 132.55 5.90997L132.562 6.0476L132.571 6.1796L132.578 6.35958L132.579 6.45181V7.53992H137.517L137.518 6.86257L137.521 6.62033L137.52 6.43254L137.516 6.2139L137.512 6.09619L137.503 5.91271L137.49 5.72477L137.48 5.59911C137.146 2.28896 134.658 1.0154 131.63 0.793793L131.428 0.780567L131.223 0.770392C131.121 0.766058 131.018 0.762843 130.915 0.760712L130.707 0.757884C130.673 0.757534 130.638 0.757534 130.603 0.757534L130.395 0.758953C130.36 0.759428 130.326 0.760024 130.291 0.76074L130.085 0.766507L129.88 0.77525L129.677 0.787034L129.476 0.801921C129.409 0.807407 129.342 0.813422 129.276 0.819974L129.078 0.841258C129.045 0.845078 129.013 0.849035 128.98 0.853131L128.785 0.879378C128.333 0.94455 127.898 1.03739 127.485 1.16152L127.31 1.21665C125.396 1.84431 124.006 3.17881 123.721 5.59911L123.691 5.86777L123.671 6.07578L123.652 6.29387L123.637 6.51084C123.628 6.65262 123.622 6.78621 123.622 6.89667L123.622 15.2455L123.624 15.3491L123.628 15.5066L123.633 15.617L123.64 15.735L123.649 15.8632L123.66 16.0045L123.682 16.2469L123.7 16.4328C123.977 19.5088 126.309 20.8771 129.161 21.2L129.361 21.2208C129.696 21.2527 130.037 21.2707 130.382 21.2759L130.589 21.2774L130.798 21.2759C131.145 21.2707 131.488 21.2527 131.824 21.2208L132.024 21.2C134.886 20.8771 137.202 19.5088 137.484 16.4328L137.507 16.1615L137.524 15.932L137.539 15.6749L137.548 15.4534L137.556 15.1398V9.88631H130.621ZM96.5743 1.28497H91.6156V15.7895C91.6234 16.0423 91.6156 16.3263 91.5721 16.5345L91.5575 16.5976L91.5394 16.6648C91.5327 16.6878 91.5255 16.7114 91.5175 16.7355L91.4916 16.809C91.3045 17.3077 90.828 17.9584 89.6879 17.9584C88.6188 17.9584 88.1307 17.3712 87.9262 16.8849L87.8963 16.809C87.8917 16.7966 87.8872 16.7842 87.883 16.7719L87.8596 16.6997L87.8403 16.6307C87.8374 16.6195 87.8346 16.6085 87.8321 16.5976L87.8184 16.5345C87.7688 16.3263 87.7625 16.0423 87.7688 15.7895V1.28497H82.8116V15.3394L82.8107 15.4524L82.8125 15.65L82.8194 15.9407L82.833 16.294L82.8425 16.4719L82.8489 16.5663L82.8552 16.6357C83.0981 19.236 84.6236 20.5894 86.7779 21.1558L86.9615 21.2018C87.3623 21.2974 87.7836 21.3671 88.2214 21.4137L88.4246 21.4335L88.63 21.4501L88.8376 21.4636C88.942 21.4696 89.0471 21.4744 89.1529 21.478L89.3655 21.4839L89.58 21.4867C89.6159 21.4871 89.6519 21.4871 89.6879 21.4871L89.9037 21.4857C89.9395 21.4852 89.9752 21.4846 90.0109 21.4839L90.2239 21.478C90.3299 21.4744 90.4352 21.4696 90.5397 21.4636L90.7477 21.4501L90.9534 21.4335L91.1569 21.4137C94.0571 21.1057 96.2326 19.7853 96.5322 16.6357L96.5362 16.6044L96.5443 16.5219L96.5563 16.3573L96.567 16.1582L96.5729 16.0142L96.579 15.7934L96.5807 15.65L96.5801 15.5151L96.577 15.3936C96.5762 15.3748 96.5753 15.3567 96.5743 15.3394V1.28497ZM51.0135 1.28497L48.54 16.611L46.0679 1.28497H38.0693L37.6451 20.8914H42.5453L42.678 2.74114L46.0496 20.8914H51.0213L54.3959 2.74114L54.529 20.8914H59.4416L59.003 1.28497H51.0135ZM21.3988 1.28497L17.767 20.8914H23.0632L25.8001 2.74114L28.4713 20.8914H33.7307L30.114 1.28497H21.3988ZM113.904 17.0705L109.287 1.28497H102.011V20.687H106.824L106.544 4.39646L111.503 20.687H118.481V1.28497H113.636L113.904 17.0705ZM69.3833 6.38762C69.2962 6.00041 69.3214 5.58904 69.3664 5.37403C69.3792 5.31698 69.3943 5.25945 69.4121 5.20201L69.4408 5.11598C69.6364 4.57244 70.094 4.06187 71.1434 4.06187C72.2758 4.06187 72.9397 4.7678 72.9397 5.8272V7.02608H77.7734V5.65953C77.7734 2.57563 75.7551 1.38933 73.5984 0.973544L73.4209 0.941081L73.243 0.91195L73.0649 0.886011L72.8869 0.863124L72.7092 0.843152L72.532 0.825954C72.4731 0.820668 72.4143 0.815822 72.3556 0.811392L72.1802 0.799326L72.0061 0.789619L71.8334 0.782129L71.6624 0.77672L71.4933 0.77325L71.2438 0.77138L71.1338 0.771768L70.9151 0.774888C70.8788 0.775671 70.8426 0.776586 70.8065 0.777634L70.5907 0.78553C70.519 0.7887 70.4477 0.792412 70.3768 0.796674L70.1651 0.811119C67.2162 1.03669 64.9149 2.24799 64.4546 5.08854C64.3184 5.95358 64.2847 6.72145 64.5015 7.70129C64.8427 9.31144 66.184 10.4572 67.7237 11.4183L67.962 11.5647C68.002 11.5889 68.042 11.6129 68.0822 11.6369L68.324 11.7794L68.5673 11.9195L68.8115 12.0575L69.178 12.261L70.1409 12.7887L70.3748 12.9184L70.6048 13.0477L70.8301 13.1768L71.05 13.306C72.0994 13.9305 72.9402 14.5638 73.2428 15.321C73.4102 15.7709 73.3736 16.3379 73.2926 16.6997L73.2788 16.7581C73.2588 16.845 73.2336 16.9321 73.202 17.0176L73.1681 17.1026C72.9455 17.6229 72.4586 18.0665 71.3891 18.0665C70.169 18.0665 69.4347 17.3651 69.4347 16.3079L69.4332 14.4263H64.2303V15.922C64.2303 19.4325 66.4576 20.9575 69.2471 21.4102L69.4547 21.4418C69.5938 21.4616 69.7341 21.4788 69.8755 21.4936L70.0884 21.5139C70.3377 21.5355 70.5899 21.5497 70.844 21.5572L71.0623 21.5621C71.0987 21.5626 71.1352 21.563 71.1717 21.5632L71.2813 21.5636C71.3543 21.5636 71.427 21.5631 71.4994 21.5621L71.7157 21.5573C71.7516 21.5563 71.7875 21.5551 71.8232 21.5538L72.0369 21.5442C72.1078 21.5405 72.1784 21.5362 72.2486 21.5314L72.4583 21.5152C72.5974 21.5033 72.7351 21.4892 72.8712 21.4727L73.0742 21.4463L73.2747 21.4164C73.3412 21.4059 73.4072 21.3947 73.4728 21.383L73.6682 21.3459C76.0295 20.8728 77.7864 19.5899 78.1392 17.1234C78.1878 16.7555 78.2177 16.4157 78.2338 16.1052L78.2425 15.9025C78.2437 15.8694 78.2446 15.8367 78.2455 15.8044L78.2487 15.6148V15.4339L78.2457 15.262L78.2401 15.099L78.2322 14.9451C78.2307 14.9202 78.2291 14.8956 78.2275 14.8715L78.2167 14.7312L78.2045 14.6L78.1911 14.4781L78.1696 14.3128L78.1473 14.1686L78.1182 14.0097L78.1047 13.9447C77.7643 12.2373 76.2695 11.0313 74.6089 10.0386L74.3707 9.89825L74.1308 9.76057L73.8899 9.62543L73.5283 9.42704L73.0486 9.16962L72.2305 8.73451L71.8939 8.55238C71.8571 8.53225 71.8205 8.51215 71.7841 8.49208L71.5687 8.37195L71.3594 8.2523C70.3291 7.65491 69.5503 7.06835 69.3833 6.38762ZM5.61961 6.33953C5.53063 5.96897 5.54454 5.57916 5.59019 5.35265L5.60909 5.26785L5.63053 5.18393C5.79383 4.59518 6.2403 3.98835 7.39426 3.98835C8.54102 3.98835 9.21624 4.70108 9.21624 5.76904V6.98252H14.1067V5.60515C14.1067 2.66227 12.2759 1.42635 10.2301 0.942885L10.0517 0.902719C9.90269 0.870788 9.75275 0.842663 9.60256 0.817981L9.42223 0.789992L9.24188 0.765169L9.06175 0.743371L8.88206 0.72446C8.82227 0.718622 8.76259 0.713242 8.70307 0.708297L8.525 0.694741L8.34808 0.683653L8.17257 0.674893L7.99868 0.668323L7.82666 0.663803L7.57265 0.660355H7.48917C7.41585 0.660355 7.34282 0.660867 7.27008 0.6619L7.05278 0.66657C6.90853 0.670735 6.76553 0.677017 6.62392 0.68548L6.41255 0.699821C6.3775 0.702487 6.34254 0.705291 6.30767 0.708235L6.09959 0.727579C6.03061 0.734591 5.96201 0.742169 5.89381 0.750321L5.69044 0.776512C5.52199 0.799787 5.35614 0.826706 5.19314 0.857398L4.99892 0.896048L4.80752 0.938369L4.61905 0.984413C4.55673 1.00039 4.4949 1.01699 4.4336 1.03423L4.25126 1.08786C2.35334 1.67128 0.985589 2.89487 0.640325 5.01805C0.497829 5.89694 0.473409 6.67009 0.679347 7.66076C1.04191 9.37272 2.52063 10.565 4.17496 11.5667L4.4182 11.712C4.45892 11.736 4.49971 11.7599 4.54056 11.7837L4.78634 11.9253L5.15642 12.1338L5.6491 12.4056L6.3758 12.8039L6.72882 13.0004L7.07201 13.1962L7.29425 13.3267C7.33081 13.3485 7.36711 13.3703 7.40316 13.3921L7.61614 13.5231C8.52438 14.0919 9.23571 14.6779 9.51029 15.3648C9.69013 15.8116 9.64807 16.3785 9.56309 16.752L9.54856 16.8124C9.52757 16.8984 9.5018 16.9845 9.46994 17.0692L9.43599 17.1534C9.20753 17.6829 8.71723 18.1369 7.63368 18.1369C6.40887 18.1369 5.67626 17.4235 5.67626 16.3517L5.66946 14.465H0.408203V15.9643C0.408203 20.1725 3.58109 21.5557 7.09494 21.6597L7.31498 21.6645L7.53575 21.6661L7.75405 21.6646C7.86278 21.663 7.97087 21.6603 8.07826 21.6564L8.29211 21.6469C8.39855 21.6414 8.50426 21.6346 8.60919 21.6267L8.818 21.609L9.02461 21.5881C9.09311 21.5805 9.16123 21.5724 9.22895 21.5637L9.43091 21.5359C9.49783 21.526 9.56433 21.5156 9.63041 21.5045L9.82734 21.4697C12.2726 21.0118 14.095 19.7147 14.4619 17.1777C14.5124 16.8153 14.544 16.48 14.5617 16.1727L14.5714 15.9721L14.5774 15.7797C14.5788 15.717 14.5796 15.6557 14.5799 15.5958L14.5792 15.4204L14.5758 15.2536L14.5699 15.0953L14.5618 14.9457L14.5519 14.8049L14.5405 14.6728L14.5214 14.4913L14.5008 14.3299L14.4729 14.1463L14.4412 13.9683C14.102 12.2812 12.6518 11.0809 11.0202 10.0937L10.7803 9.95068C10.7401 9.92709 10.6999 9.90362 10.6595 9.88027L10.4169 9.74149L10.1733 9.60528L9.92941 9.47144L9.68581 9.33979L8.611 8.76926L8.26729 8.58505L8.04408 8.46335L7.82638 8.3423L7.61482 8.22172C7.58011 8.20166 7.54568 8.1816 7.51155 8.16155L7.31044 8.04132C6.4224 7.50039 5.77031 6.95919 5.61961 6.33953Z" fill="#1428A0"/>
</svg>
