<svg width="138" height="29" viewBox="0 0 138 29" fill="none" xmlns="http://www.w3.org/2000/svg">
<path d="M25.5601 15.1637L25.5783 15.1651L27.474 15.3633C27.6071 15.3776 27.7293 15.4426 27.8156 15.5441L27.8297 15.5614L27.8117 15.5704C27.9003 15.6822 27.9394 15.8253 27.9197 15.9666C27.5056 19.2594 25.9449 22.301 23.5116 24.5578C20.9869 26.8994 17.6706 28.2005 14.227 28.2005C12.5545 28.2032 10.8962 27.8952 9.33654 27.2926L9.25157 27.2594C9.12391 27.2122 9.02134 27.1151 8.96704 26.9911L8.95887 26.9713C8.90569 26.8477 8.90274 26.7086 8.95 26.5834L9.69826 24.7579C9.79965 24.4998 10.087 24.3698 10.3465 24.4613L10.3637 24.4677C14.1884 25.9445 18.5202 25.1127 21.5259 22.3244C23.4391 20.5665 24.6728 18.1915 25.011 15.6154C25.0468 15.3494 25.2776 15.1559 25.542 15.1629L25.5601 15.1637ZM70.3307 7.41603C71.9471 7.41603 73.2111 7.90919 74.0184 8.85631L74.0455 8.8884V8.08692C74.0563 7.86321 74.2295 7.6824 74.4506 7.66056L74.4687 7.65915H76.6255C76.8474 7.67449 77.0239 7.84915 77.0431 8.069L77.0443 8.08692V20.0596C77.114 21.7479 76.5951 23.4079 75.5764 24.7559C74.4146 26.1698 72.6496 26.8857 70.3307 26.8857C67.1068 26.8857 64.5627 24.846 64.144 21.9327C64.1232 21.7224 64.2513 21.5268 64.4504 21.4609L64.4682 21.4554L66.5755 20.9601C66.5864 20.9576 66.5975 20.9556 66.6086 20.9539C66.8399 20.92 67.0548 21.08 67.0887 21.3114C67.2812 22.9455 68.6857 24.1647 70.3307 24.1255C72.8225 24.1255 73.9949 22.8589 74.0181 20.2122L74.0184 20.1316V19.0825C73.0843 20.1301 71.7335 20.709 70.3307 20.6629C66.7465 20.6629 64.1485 17.8803 64.1485 14.053C64.1157 12.331 64.722 10.6578 65.8505 9.35664C66.9967 8.09742 68.6281 7.39077 70.3307 7.41603ZM5.42027 21.9777L5.447 21.9775L5.47382 21.9777C6.33415 21.9875 7.02685 22.6832 7.0362 23.5404L7.03627 23.5672C7.03627 23.5761 7.03617 23.5851 7.03601 23.5939C7.02103 24.4716 6.29747 25.1711 5.41976 25.1562C4.54205 25.1412 3.84266 24.4177 3.85749 23.54C3.87216 22.6802 4.56679 21.9914 5.42027 21.9777ZM107.665 7.24944L107.776 7.25025C111.629 7.30346 114.016 9.9854 114.016 14.2781C114.016 14.5052 114.003 14.7322 113.98 14.958C113.96 15.1657 113.79 15.3258 113.583 15.3357L113.566 15.3362H104.407C104.463 17.2597 106.054 18.7817 107.978 18.7537C109.469 18.8475 110.829 17.8991 111.256 16.4664C111.334 16.2608 111.556 16.1502 111.765 16.2091L111.782 16.2143L113.61 16.8582C113.711 16.8906 113.794 16.9623 113.841 17.0564L113.849 17.0743C113.899 17.1735 113.908 17.2887 113.872 17.394C113.023 19.908 110.63 21.5715 107.978 21.4914C106.239 21.5087 104.565 20.8294 103.331 19.6048C101.984 18.1872 101.265 16.2865 101.336 14.3321C101.336 9.94137 104.492 7.30257 107.573 7.25024L107.665 7.24944ZM55.841 7.24944H55.8455C59.7674 7.24944 62.2034 9.94204 62.2034 14.2781C62.203 14.5052 62.191 14.7322 62.1673 14.958C62.1491 15.1668 61.9781 15.3281 61.7704 15.3359L61.753 15.3362H52.5946C52.651 17.2651 54.2494 18.7892 56.1787 18.7538C57.6712 18.8492 59.0312 17.9001 59.4567 16.4664C59.5329 16.2591 59.7564 16.1477 59.9665 16.209L59.9835 16.2143L61.8116 16.8582C61.9185 16.8927 62.0053 16.9714 62.0502 17.0743C62.093 17.1766 62.093 17.2917 62.0502 17.394C61.2018 19.9064 58.8114 21.5695 56.1607 21.4914C54.4188 21.5111 52.7417 20.8316 51.5049 19.6048C50.1594 18.1861 49.4406 16.2862 49.5102 14.3321C49.5102 9.89702 52.7296 7.24944 55.841 7.24944ZM41.9727 7.24489C43.7332 7.24489 45.1561 7.67266 46.2097 8.51461C46.9222 9.0824 47.4502 9.84859 47.7271 10.7165L47.728 10.72C47.7641 10.8696 47.6762 11.0203 47.5303 11.0637L47.5155 11.0677L45.3317 11.7881C45.2348 11.8265 45.1269 11.8265 45.03 11.7881C44.9473 11.7495 44.8851 11.6774 44.8589 11.59L44.8473 11.5471C44.6483 10.836 43.9981 9.69437 41.9727 9.69437C40.5318 9.69437 39.6673 10.5229 39.6673 11.3244L39.6676 11.3561C39.6785 11.8773 39.9618 12.5314 41.2045 12.7801L41.2433 12.7877L43.6477 13.238C46.3044 13.7729 47.8358 15.2169 47.8662 17.2293L47.8667 17.2904L47.8577 17.2545L47.8571 17.3155C47.8185 19.3327 45.8673 21.4554 42.2743 21.4554C38.0643 21.4554 36.4119 19.0735 36.1057 17.6687C36.0857 17.5217 36.1753 17.3829 36.3156 17.3397L36.3308 17.3354L38.5822 16.633C38.6224 16.6265 38.6635 16.6265 38.7037 16.633C38.761 16.632 38.8176 16.6442 38.8692 16.6684L38.8883 16.6781C38.971 16.7177 39.032 16.7919 39.0549 16.8806C39.3386 18.2315 40.5588 19.0375 42.3149 19.0375C43.9494 19.0375 44.6923 18.1819 44.6923 17.4075C44.6923 16.6415 44.0448 16.0737 42.9286 15.8392L42.8912 15.8315L40.3652 15.3408C38.0103 14.895 36.5425 13.4316 36.5425 11.5269C36.5425 9.20806 39.0324 7.24489 41.9727 7.24489ZM132.783 3.49417H134.751C134.983 3.50811 135.165 3.69641 135.174 3.92704L135.174 3.94442V7.64115H137.542C137.773 7.65734 137.952 7.84481 137.961 8.07371L137.962 8.0914V10.0546L137.961 10.0717C137.955 10.2918 137.78 10.4705 137.56 10.4818L137.542 10.4823H135.174V17.0518C135.174 18.1414 135.606 18.5917 136.718 18.5917C136.943 18.5878 137.169 18.5707 137.391 18.5406L137.475 18.5286C137.598 18.5079 137.723 18.5425 137.817 18.6232C137.902 18.7021 137.953 18.8105 137.961 18.9258L137.962 18.9474V20.798C137.963 20.9866 137.84 21.1536 137.66 21.2078C137.141 21.3529 136.605 21.4258 136.067 21.4245L135.994 21.4239C133.644 21.4239 132.178 19.9278 132.149 17.5081L132.149 17.4345V10.5094H130.1C129.876 10.4962 129.697 10.3209 129.678 10.0996L129.676 10.0816V8.10939C129.676 7.87672 129.853 7.68309 130.082 7.66052L130.1 7.65915L130.65 7.65908L130.709 7.65803C131.352 7.63956 132.34 7.37897 132.36 5.94377L132.36 5.89855V3.94442C132.359 3.71175 132.536 3.51811 132.766 3.49554L132.783 3.49417ZM94.5396 7.24744L94.5911 7.24944H94.5865C96.9047 7.24944 99.2448 8.86457 99.2914 12.392L99.2921 12.4995V20.8386C99.2816 21.0623 99.1078 21.243 98.8869 21.2649L98.8689 21.2663H96.7119C96.4885 21.2531 96.3099 21.0779 96.2899 20.8566L96.2886 20.8386V12.7697L96.2882 12.7076C96.2751 11.6795 95.9257 10.0275 93.808 10.0275C92.243 10.0275 91.1283 11.2456 91.1061 13.0175L91.1058 13.0714V20.8386C91.0953 21.0623 90.9222 21.243 90.7006 21.2649L90.6826 21.2663H88.4993C88.2752 21.2531 88.0965 21.0779 88.0773 20.8566L88.0761 20.8386V12.7697L88.0757 12.7076C88.0626 11.6795 87.7131 10.0275 85.5947 10.0275C83.9677 10.0275 82.866 11.2367 82.8441 13.0435L82.8438 13.0984V20.8386C82.8325 21.0623 82.6594 21.243 82.4386 21.2649L82.4206 21.2663H80.2636C80.0417 21.251 79.8653 21.0763 79.8462 20.8565L79.845 20.8386V8.05989C79.8555 7.83776 80.0264 7.65758 80.2457 7.63371L80.2636 7.63211H82.3395C82.5628 7.64527 82.7422 7.82054 82.7615 8.04185L82.7627 8.05989V8.82986C83.6964 7.80611 85.024 7.23091 86.4095 7.24944C88.0143 7.20241 89.5118 8.05085 90.2957 9.45117C91.2292 8.02479 92.8387 7.19032 94.5396 7.24744ZM126.835 8.83882C127.661 9.92741 128.087 11.2663 128.044 12.6309L128.041 12.6886V20.8386C128.031 21.0607 127.86 21.2409 127.641 21.2647L127.623 21.2663H125.44C125.216 21.2531 125.037 21.0779 125.017 20.8566L125.016 20.8386V13.1254C125.016 11.1082 124.066 10.0816 122.265 10.0816C121.469 10.0559 120.709 10.4103 120.216 11.0361C119.739 11.7231 119.493 12.543 119.512 13.378L119.514 13.4271V20.8386C119.503 21.0623 119.329 21.243 119.109 21.2649L119.091 21.2663H116.911C116.688 21.2531 116.508 21.0779 116.489 20.8566L116.488 20.8386V8.05085C116.498 7.82714 116.672 7.64641 116.893 7.6245L116.911 7.62308H119.041C119.263 7.63842 119.439 7.81315 119.459 8.03294L119.46 8.05085V8.95142C120.373 7.84457 121.744 7.21739 123.179 7.24944C124.577 7.18967 125.925 7.77576 126.835 8.83882ZM1.3358 15.71H16.8386C17.1235 15.7124 17.3537 15.9405 17.3608 16.2232L17.361 16.2413V18.182C17.3634 18.4669 17.1391 18.7009 16.8567 18.7128L16.8386 18.7133H1.3358C1.05086 18.7109 0.82079 18.4827 0.813477 18.2001V18.1819V16.2413V16.2231C0.820637 15.9467 1.04103 15.7224 1.3173 15.7105L1.3358 15.71ZM70.7044 10.1086C68.5792 10.1086 67.2284 11.6215 67.2284 14.053C67.2284 16.4844 68.5611 17.9928 70.7044 17.9928C72.7486 17.9928 74.1265 16.4079 74.1265 14.053C74.1265 11.6935 72.7486 10.1086 70.7044 10.1086ZM52.6904 12.7394L52.6846 12.7877H59.0919C58.936 11.076 57.7296 10.0086 55.9229 9.98739L55.868 9.98707C54.276 9.96118 52.9204 11.1255 52.6968 12.6918L52.6904 12.7394ZM104.521 12.7394L104.515 12.7877H110.923C110.767 11.076 109.56 10.0086 107.753 9.98739L107.698 9.98707C106.107 9.96118 104.751 11.1255 104.527 12.6918L104.521 12.7394ZM18.7793 0.900579C18.9135 0.949002 19.0223 1.04971 19.0809 1.17976C19.1348 1.31105 19.1348 1.45825 19.0809 1.58946L18.4056 3.39061C18.3119 3.65766 18.0199 3.79861 17.7527 3.70578C14.2143 2.47104 10.2881 3.17259 7.39644 5.55635C5.5943 7.06479 4.31468 9.10403 3.74025 11.3828C3.68079 11.613 3.47358 11.7739 3.23595 11.7746H3.11887L1.26374 11.3288C1.12543 11.2963 1.00665 11.2084 0.935055 11.0857H0.926019C0.850952 10.963 0.829791 10.8148 0.867556 10.676C1.60425 7.75885 3.25263 5.15298 5.57283 3.23746C9.26222 0.20011 14.2716 -0.686328 18.7793 0.900579ZM11.9127 8.68127H27.4154C27.6933 8.68354 27.9204 8.90088 27.937 9.17611L27.9378 9.19454V11.1352C27.9401 11.4202 27.7161 11.6542 27.4335 11.6661L27.4154 11.6666H11.9127C11.6296 11.6617 11.4021 11.4344 11.395 11.1536L11.3948 11.1352V9.21253C11.3923 8.92946 11.6137 8.69633 11.8943 8.6819L11.9127 8.68127ZM22.6746 2.76016L22.7013 2.75995L22.7282 2.76018C23.5885 2.77004 24.2812 3.4657 24.2905 4.3228L24.2906 4.34964C24.2906 4.3586 24.2905 4.36756 24.2903 4.37644C24.2754 5.25415 23.5518 5.95354 22.6741 5.93863C21.7964 5.92373 21.097 5.20009 21.1119 4.32245C21.1265 3.46258 21.8212 2.7739 22.6746 2.76016Z" fill="#4FB58B"/>
</svg>
