<svg width="1440" height="664" viewBox="0 0 1440 664" fill="none" xmlns="http://www.w3.org/2000/svg">
<path opacity="0.2" fill-rule="evenodd" clip-rule="evenodd" d="M1484.45 151.565C1452.65 134.204 1395.49 112.11 1327.32 102.209C1259.15 92.3088 1179.93 94.5984 1104.02 126.042C1080.28 135.879 1063.81 147.954 1052.67 161.591C1041.54 175.231 1035.75 190.406 1033.33 206.406C1029.16 233.925 1034.92 263.934 1040.47 292.797C1041.37 297.452 1042.25 302.077 1043.1 306.657C1046.13 323.169 1048.53 339.101 1048.35 353.788C1048.17 368.471 1045.4 381.876 1038.12 393.353C1023.56 416.294 990.789 431.756 923.695 434.005C822.722 437.389 753.522 407.807 694.894 382.743L694.893 382.743C675.642 374.513 657.531 366.771 639.808 360.843C603.965 348.853 569.732 344.31 530.988 358.307C492.269 372.295 449.107 404.776 395.335 466.676C341.635 528.494 296.82 546.85 256.844 541.236C216.809 535.613 181.447 505.938 146.691 471.213C138.295 462.825 129.936 454.143 121.557 445.441L121.557 445.441C95.2959 418.166 68.8433 390.692 40.4929 371.458C21.7811 358.763 2.21083 349.632 -18.7178 346.505C-39.6536 343.377 -61.9168 346.263 -86 357.552L-85.5756 358.457C-61.6588 347.246 -39.5939 344.397 -18.8656 347.494C1.86986 350.592 21.2996 359.644 39.9315 372.285C68.1869 391.455 94.5345 418.819 120.778 446.075C129.171 454.792 137.553 463.497 145.984 471.92C180.728 506.633 216.303 536.552 256.705 542.226C297.166 547.908 342.289 529.265 396.09 467.332C449.817 405.483 492.843 373.151 531.327 359.248C569.786 345.354 603.772 349.843 639.491 361.791C657.114 367.686 675.163 375.402 694.373 383.615C753.029 408.692 822.51 438.397 923.729 435.004C990.885 432.753 1024.12 417.277 1038.96 393.889C1046.38 382.203 1049.17 368.596 1049.35 353.8C1049.53 339.009 1047.11 322.996 1044.08 306.476C1043.24 301.913 1042.36 297.311 1041.47 292.685L1041.45 292.583C1035.9 263.705 1030.17 233.89 1034.32 206.556C1036.72 190.704 1042.44 175.703 1053.45 162.224C1064.46 148.742 1080.77 136.755 1104.4 126.966C1180.1 95.61 1259.13 93.3162 1327.18 103.199C1395.23 113.082 1452.27 135.138 1483.97 152.443L1484.45 151.565ZM1347.32 142.209C1415.49 152.11 1472.65 174.204 1504.45 191.565L1503.97 192.443C1472.27 175.138 1415.23 153.082 1347.18 143.199C1279.13 133.316 1200.1 135.61 1124.4 166.966C1100.77 176.755 1084.46 188.742 1073.45 202.224C1062.44 215.703 1056.72 230.704 1054.32 246.556C1050.17 273.89 1055.9 303.705 1061.45 332.583L1061.47 332.685L1061.49 332.811C1062.37 337.395 1063.25 341.954 1064.08 346.476C1067.11 362.996 1069.53 379.009 1069.35 393.8C1069.17 408.596 1066.38 422.203 1058.96 433.889C1044.12 457.277 1010.89 472.753 943.729 475.004C842.51 478.397 773.029 448.692 714.373 423.615C695.163 415.402 677.114 407.686 659.491 401.791C623.772 389.843 589.786 385.354 551.327 399.248C512.843 413.151 469.817 445.483 416.09 507.332C362.289 569.265 317.166 587.908 276.705 582.226C236.303 576.552 200.728 546.633 165.984 511.92C157.553 503.497 149.171 494.792 140.778 486.075C114.534 458.819 88.1869 431.455 59.9315 412.285C41.2996 399.644 21.8699 390.592 1.13443 387.494C-19.5939 384.397 -41.6588 387.246 -65.5756 398.457L-66 397.552C-41.9168 386.263 -19.6536 383.377 1.2822 386.505C22.2108 389.632 41.7811 398.763 60.4929 411.458C88.8433 430.692 115.296 458.166 141.557 485.441L141.557 485.441C149.936 494.143 158.295 502.825 166.691 511.213C201.447 545.938 236.809 575.613 276.844 581.236C316.82 586.85 361.635 568.494 415.335 506.676C469.107 444.776 512.269 412.295 550.988 398.307C589.732 384.31 623.965 388.853 659.808 400.843C677.531 406.771 695.642 414.513 714.893 422.743L714.894 422.743C773.522 447.807 842.722 477.389 943.696 474.005C1010.79 471.756 1043.56 456.294 1058.12 433.353C1065.4 421.876 1068.17 408.471 1068.35 393.788C1068.53 379.101 1066.13 363.169 1063.1 346.657C1062.25 342.077 1061.37 337.452 1060.47 332.797C1054.92 303.934 1049.16 273.925 1053.33 246.406C1055.75 230.406 1061.54 215.231 1072.67 201.591C1083.81 187.954 1100.28 175.879 1124.02 166.042C1199.93 134.598 1279.15 132.309 1347.32 142.209ZM1524.45 231.565C1492.65 214.203 1435.49 192.11 1367.32 182.209C1299.15 172.309 1219.93 174.598 1144.02 206.042C1120.28 215.879 1103.81 227.954 1092.67 241.591C1081.54 255.231 1075.75 270.406 1073.33 286.406C1069.16 313.925 1074.92 343.934 1080.47 372.797C1081.37 377.452 1082.25 382.077 1083.1 386.657C1086.13 403.169 1088.53 419.101 1088.35 433.788C1088.17 448.471 1085.4 461.876 1078.12 473.353C1063.56 496.294 1030.79 511.756 963.696 514.005C862.722 517.389 793.522 487.807 734.894 462.743L734.893 462.743C715.642 454.513 697.531 446.771 679.808 440.843C643.965 428.853 609.732 424.31 570.988 438.307C532.269 452.295 489.107 484.776 435.335 546.676C381.635 608.494 336.82 626.85 296.844 621.236C256.809 615.613 221.447 585.938 186.691 551.213C178.295 542.825 169.936 534.143 161.557 525.441C135.296 498.166 108.843 470.692 80.4929 451.458C61.7811 438.763 42.2108 429.632 21.2822 426.505C0.346436 423.377 -21.9168 426.263 -46 437.552L-45.5756 438.457C-21.6588 427.246 0.406128 424.397 21.1344 427.494C41.8699 430.592 61.2996 439.644 79.9315 452.285C108.187 471.455 134.534 498.819 160.778 526.075C169.171 534.792 177.553 543.497 185.984 551.92C220.728 586.633 256.303 616.552 296.705 622.226C337.166 627.908 382.289 609.265 436.09 547.332C489.817 485.483 532.843 453.151 571.327 439.248C609.786 425.354 643.772 429.843 679.491 441.791C697.114 447.686 715.163 455.402 734.373 463.615C793.029 488.692 862.51 518.397 963.729 515.004C1030.89 512.753 1064.12 497.277 1078.96 473.889C1086.38 462.203 1089.17 448.596 1089.35 433.8C1089.53 419.009 1087.11 402.996 1084.08 386.476C1083.24 381.913 1082.36 377.31 1081.47 372.684L1081.45 372.583C1075.9 343.705 1070.17 313.89 1074.32 286.556C1076.72 270.704 1082.44 255.703 1093.45 242.224C1104.46 228.742 1120.77 216.755 1144.4 206.966C1220.1 175.61 1299.13 173.316 1367.18 183.199C1435.23 193.082 1492.27 215.138 1523.97 232.443L1524.45 231.565ZM1544.45 271.565C1512.65 254.203 1455.49 232.11 1387.32 222.209C1319.15 212.309 1239.93 214.598 1164.02 246.042C1140.28 255.879 1123.81 267.954 1112.67 281.591C1101.54 295.231 1095.75 310.406 1093.33 326.406C1089.16 353.925 1094.92 383.934 1100.47 412.797C1101.37 417.452 1102.25 422.077 1103.1 426.657C1106.13 443.169 1108.53 459.101 1108.35 473.788C1108.17 488.471 1105.4 501.876 1098.12 513.353C1083.56 536.294 1050.79 551.756 983.696 554.005C882.722 557.389 813.522 527.807 754.894 502.743L754.893 502.743C735.642 494.513 717.531 486.771 699.808 480.843C663.965 468.853 629.732 464.31 590.988 478.307C552.269 492.295 509.107 524.776 455.335 586.676C401.635 648.494 356.82 666.85 316.844 661.236C276.809 655.613 241.447 625.938 206.691 591.213C198.299 582.829 189.943 574.15 181.567 565.451L181.559 565.442L181.557 565.441C155.296 538.166 128.843 510.692 100.493 491.458C81.7811 478.763 62.2108 469.632 41.2822 466.505C20.3464 463.377 -1.9168 466.263 -26 477.552L-25.5756 478.457C-1.65876 467.246 20.4061 464.397 41.1344 467.494C61.8699 470.592 81.2996 479.644 99.9315 492.285C128.187 511.455 154.534 538.819 180.778 566.075C189.171 574.792 197.553 583.497 205.984 591.92C240.728 626.633 276.303 656.552 316.705 662.226C357.166 667.908 402.289 649.265 456.09 587.332C509.817 525.483 552.843 493.151 591.327 479.248C629.786 465.354 663.772 469.843 699.491 481.791C717.114 487.686 735.163 495.402 754.373 503.615C813.029 528.692 882.51 558.397 983.729 555.004C1050.89 552.753 1084.12 537.277 1098.96 513.889C1106.38 502.203 1109.17 488.596 1109.35 473.8C1109.53 459.009 1107.11 442.996 1104.08 426.476C1103.24 421.913 1102.36 417.31 1101.47 412.684L1101.45 412.583C1095.9 383.705 1090.17 353.89 1094.32 326.556C1096.72 310.704 1102.44 295.703 1113.45 282.224C1124.46 268.742 1140.77 256.755 1164.4 246.966C1240.1 215.61 1319.13 213.316 1387.18 223.199C1455.23 233.082 1512.27 255.138 1543.97 272.443L1544.45 271.565Z" fill="url(#paint0_linear_35_901)"/>
<path opacity="0.2" fill-rule="evenodd" clip-rule="evenodd" d="M1481.39 516.811C1449.26 534.349 1391.53 556.667 1322.66 566.667C1253.8 576.668 1173.77 574.355 1097.1 542.593C1073.11 532.657 1056.48 520.459 1045.23 506.684C1033.98 492.907 1028.14 477.579 1025.69 461.418C1021.48 433.62 1027.3 403.307 1032.91 374.151L1032.91 374.136C1033.81 369.439 1034.71 364.772 1035.56 360.151C1038.62 343.471 1041.05 327.377 1040.87 312.54C1040.68 297.708 1037.89 284.166 1030.53 272.571C1015.82 249.395 982.716 233.776 914.941 231.505C812.941 228.086 743.038 257.969 683.815 283.287C664.368 291.6 646.073 299.421 628.171 305.409C591.965 317.52 557.386 322.109 518.249 307.97C479.138 293.841 435.539 261.032 381.222 198.503C326.976 136.058 281.705 117.513 241.321 123.185C200.878 128.865 165.155 158.843 130.047 193.92C121.566 202.393 113.121 211.163 104.657 219.954C78.1299 247.506 51.4093 275.258 22.7718 294.687C3.8704 307.511 -15.8978 316.734 -37.0378 319.892C-58.185 323.052 -80.6732 320.137 -105 308.734L-104.576 307.829C-80.4152 319.154 -58.1253 322.032 -37.1856 318.903C-16.2387 315.774 3.38892 306.629 22.2103 293.86C50.7529 274.495 77.3685 246.852 103.879 219.32C112.357 210.515 120.824 201.721 129.34 193.212C164.436 158.147 200.371 127.926 241.182 122.195C282.051 116.455 327.631 135.286 381.977 197.847C436.25 260.324 479.713 292.985 518.589 307.03C557.439 321.065 591.772 316.53 627.854 304.461C645.656 298.506 663.888 290.711 683.293 282.415L683.294 282.415C742.545 257.084 812.729 227.078 914.975 230.505C982.812 232.779 1016.38 248.412 1031.37 272.035C1038.87 283.838 1041.68 297.582 1041.87 312.528C1042.05 327.469 1039.6 343.644 1036.54 360.331C1035.69 364.963 1034.79 369.633 1033.89 374.329L1033.88 374.366C1028.28 403.536 1022.49 433.655 1026.68 461.268C1029.11 477.281 1034.89 492.435 1046.01 506.052C1057.13 519.672 1073.61 531.781 1097.48 541.669C1173.94 573.344 1253.78 575.661 1322.52 565.678C1391.26 555.694 1448.89 533.414 1480.91 515.933L1481.39 516.811ZM1342.87 526.261C1411.73 516.261 1469.46 493.943 1501.59 476.405L1501.11 475.527C1469.09 493.008 1411.47 515.288 1342.72 525.272C1273.98 535.255 1194.15 532.938 1117.68 501.263C1093.81 491.375 1077.33 479.266 1066.21 465.646C1055.09 452.029 1049.31 436.875 1046.88 420.862C1042.7 393.249 1048.48 363.13 1054.09 333.96L1054.09 333.923C1055 329.227 1055.89 324.557 1056.74 319.925C1059.81 303.238 1062.25 287.063 1062.07 272.122C1061.89 257.176 1059.07 243.432 1051.58 231.629C1036.58 208.006 1003.02 192.373 935.178 190.099C832.932 186.672 762.748 216.678 703.497 242.009L703.496 242.009C684.091 250.305 665.859 258.1 648.057 264.055C611.975 276.124 577.642 280.659 538.792 266.624C499.916 252.579 456.453 219.918 402.18 157.441C347.834 94.8803 302.254 76.049 261.385 81.7889C220.574 87.5204 184.639 117.741 149.543 152.806C141.027 161.315 132.56 170.109 124.082 178.914C97.5715 206.447 70.9559 234.089 42.4133 253.454C23.5919 266.223 3.96425 275.368 -16.9826 278.497C-37.9223 281.626 -60.2122 278.748 -84.3726 267.423L-84.797 268.328C-60.4702 279.731 -37.982 282.646 -16.8349 279.486C4.30521 276.328 24.0734 267.105 42.9747 254.281C71.6123 234.852 98.3329 207.1 124.86 179.548C133.324 170.757 141.769 161.987 150.25 153.514C185.358 118.437 221.081 88.4591 261.524 82.7791C301.908 77.1075 347.179 95.6517 401.425 158.097C455.742 220.626 499.341 253.435 538.452 267.564C577.589 281.703 612.168 277.114 648.374 265.003C666.276 259.015 684.571 251.194 704.018 242.881C763.241 217.563 833.144 187.68 935.144 191.099C1002.92 193.37 1036.02 208.989 1050.73 232.165C1058.09 243.76 1060.89 257.302 1061.07 272.134C1061.25 286.971 1058.82 303.065 1055.76 319.745C1054.91 324.361 1054.02 329.023 1053.12 333.715L1053.11 333.729L1053.11 333.745C1047.51 362.901 1041.68 393.214 1045.89 421.012C1048.34 437.173 1054.19 452.501 1065.44 466.279C1076.68 480.053 1093.32 492.251 1117.3 502.187C1193.98 533.949 1274 536.262 1342.87 526.261ZM1521.79 435.999C1489.67 453.537 1431.93 475.855 1363.07 485.855C1294.2 495.856 1214.18 493.543 1137.5 461.781C1113.52 451.845 1096.89 439.647 1085.64 425.873C1074.39 412.095 1068.55 396.767 1066.1 380.606C1061.88 352.808 1067.71 322.495 1073.31 293.339L1073.32 293.323L1073.32 293.309C1074.22 288.617 1075.12 283.955 1075.96 279.339C1079.03 262.659 1081.46 246.565 1081.27 231.728C1081.09 216.896 1078.3 203.354 1070.94 191.759C1056.22 168.583 1023.12 152.964 955.347 150.693C853.347 147.274 783.444 177.157 724.221 202.475C704.774 210.788 686.479 218.609 668.577 224.597C632.37 236.708 597.792 241.297 558.655 227.158C519.544 213.029 475.945 180.22 421.628 117.691C367.382 55.2457 322.111 36.7015 281.727 42.3732C241.284 48.0532 205.561 78.0307 170.453 113.108C161.972 121.581 153.527 130.351 145.063 139.142C118.536 166.694 91.8153 194.446 63.1777 213.875C44.2764 226.699 24.5082 235.922 3.36813 239.08C-17.7791 242.24 -40.2672 239.325 -64.594 227.922L-64.1696 227.017C-40.0092 238.342 -17.7194 241.22 3.22037 238.091C24.1672 234.962 43.7949 225.817 62.6163 213.048C91.1589 193.683 117.774 166.041 144.285 138.508L144.285 138.507C152.763 129.702 161.23 120.909 169.746 112.401C204.842 77.3354 240.777 47.1144 281.588 41.3829C322.457 35.6431 368.037 54.4743 422.383 117.035C476.656 179.512 520.119 212.173 558.995 226.218C597.845 240.253 632.177 235.718 668.26 223.649C686.062 217.694 704.294 209.9 723.699 201.603L723.7 201.603C782.951 176.272 853.135 146.266 955.381 149.693C1023.22 151.967 1056.79 167.6 1071.78 191.223C1079.27 203.026 1082.09 216.771 1082.27 231.716C1082.46 246.657 1080.01 262.832 1076.95 279.519C1076.1 284.151 1075.2 288.822 1074.3 293.517L1074.29 293.554C1068.69 322.724 1062.9 352.843 1067.09 380.456C1069.51 396.469 1075.29 411.623 1086.41 425.24C1097.53 438.86 1114.02 450.969 1137.89 460.857C1214.35 492.532 1294.18 494.849 1362.93 484.866C1431.67 474.882 1489.29 452.602 1521.31 435.121L1521.79 435.999ZM1542 395.593C1509.87 413.131 1452.13 435.449 1383.27 445.449C1314.41 455.45 1234.38 453.137 1157.71 421.375C1133.72 411.439 1117.09 399.241 1105.84 385.467C1094.59 371.689 1088.75 356.361 1086.3 340.2C1082.09 312.402 1087.91 282.089 1093.52 252.933L1093.52 252.919L1093.52 252.907L1093.52 252.89C1094.43 248.203 1095.32 243.545 1096.17 238.933C1099.23 222.253 1101.66 206.159 1101.48 191.322C1101.29 176.49 1098.5 162.948 1091.14 151.353C1076.43 128.177 1043.32 112.558 975.55 110.287C873.55 106.868 803.647 136.751 744.424 162.069C724.977 170.382 706.682 178.203 688.78 184.191C652.573 196.302 617.995 200.891 578.858 186.752C539.747 172.623 496.148 139.814 441.831 77.2849C387.585 14.8397 342.314 -3.70447 301.93 1.96716C261.487 7.64722 225.764 37.6248 190.655 72.7019C182.175 81.175 173.73 89.9455 165.266 98.7363C138.739 126.288 112.018 154.04 83.3807 173.469C64.4794 186.293 44.7112 195.516 23.5711 198.674C2.42393 201.834 -20.0643 198.919 -44.391 187.516L-43.9666 186.611C-19.8062 197.936 2.48363 200.814 23.4234 197.685C44.3702 194.556 63.9979 185.411 82.8193 172.642C111.362 153.277 137.977 125.635 164.488 98.1017C172.966 89.2967 181.433 80.5028 189.949 71.9945C225.045 36.9294 260.98 6.7085 301.791 0.976929C342.66 -4.76294 388.24 14.0684 442.586 76.6292C496.859 139.106 540.322 171.767 579.198 185.812C618.048 199.847 652.38 195.312 688.463 183.243C706.265 177.288 724.497 169.494 743.902 161.197L743.903 161.197C803.154 135.866 873.338 105.86 975.584 109.287C1043.42 111.561 1076.99 127.194 1091.98 150.817C1099.47 162.62 1102.29 176.365 1102.48 191.31C1102.66 206.251 1100.21 222.426 1097.15 239.113C1096.3 243.745 1095.4 248.416 1094.5 253.111L1094.49 253.148C1088.89 282.318 1083.1 312.437 1087.29 340.05C1089.72 356.063 1095.5 371.217 1106.62 384.834C1117.74 398.454 1134.22 410.563 1158.09 420.451C1234.55 452.126 1314.39 454.443 1383.13 444.46C1451.87 434.476 1509.5 412.196 1541.52 394.715L1542 395.593Z" fill="url(#paint1_linear_35_901)"/>
<defs>
<linearGradient id="paint0_linear_35_901" x1="101.5" y1="519.5" x2="1530.5" y2="519.5" gradientUnits="userSpaceOnUse">
<stop offset="0.341667" stop-color="#4535AF" stop-opacity="0.7"/>
<stop offset="0.511553" stop-color="#F8EFF4" stop-opacity="0.1"/>
<stop offset="0.851637" stop-color="#4535AF" stop-opacity="0.8"/>
</linearGradient>
<linearGradient id="paint1_linear_35_901" x1="84.4024" y1="145.149" x2="1527.9" y2="145.149" gradientUnits="userSpaceOnUse">
<stop offset="0.310417" stop-color="#4535AF" stop-opacity="0.7"/>
<stop offset="0.461458" stop-color="#F8EFF4" stop-opacity="0.1"/>
<stop offset="0.851637" stop-color="#4535AF" stop-opacity="0.8"/>
</linearGradient>
</defs>
</svg>
