<svg width="64" height="64" viewBox="0 0 64 64" fill="none" xmlns="http://www.w3.org/2000/svg">
<rect width="64" height="64" rx="20" fill="#E8F2FF"/>
<rect width="64" height="64" rx="20" fill="#F8F9FD"/>
<path d="M40.6667 12H23.3333C22.1855 12.0047 21.0861 12.4577 20.2745 13.2604C19.4628 14.0632 19.0048 15.1505 19 16.2857V47.7143C19.0048 48.8495 19.4628 49.9368 20.2745 50.7396C21.0861 51.5423 22.1855 51.9953 23.3333 52H40.6667C41.8145 51.9953 42.9139 51.5423 43.7255 50.7396C44.5372 49.9368 44.9952 48.8495 45 47.7143V16.2857C44.9952 15.1505 44.5372 14.0632 43.7255 13.2604C42.9139 12.4577 41.8145 12.0047 40.6667 12V12ZM42.1111 47.7143C42.1111 48.0932 41.9589 48.4565 41.688 48.7244C41.4172 48.9923 41.0498 49.1429 40.6667 49.1429H23.3333C22.9502 49.1429 22.5828 48.9923 22.312 48.7244C22.0411 48.4565 21.8889 48.0932 21.8889 47.7143V16.2857C21.8889 15.9068 22.0411 15.5435 22.312 15.2756C22.5828 15.0077 22.9502 14.8571 23.3333 14.8571H40.6667C41.0498 14.8571 41.4172 15.0077 41.688 15.2756C41.9589 15.5435 42.1111 15.9068 42.1111 16.2857V47.7143ZM34.1667 19.8571C34.1667 20.281 34.0396 20.6953 33.8015 21.0477C33.5634 21.4 33.2251 21.6747 32.8291 21.8369C32.4332 21.9991 31.9976 22.0415 31.5773 21.9588C31.157 21.8761 30.7709 21.6721 30.4679 21.3724C30.1649 21.0727 29.9586 20.6909 29.875 20.2752C29.7914 19.8595 29.8343 19.4287 29.9983 19.0371C30.1623 18.6456 30.44 18.3109 30.7963 18.0754C31.1526 17.84 31.5715 17.7143 32 17.7143C32.5746 17.7143 33.1257 17.9401 33.5321 18.3419C33.9384 18.7438 34.1667 19.2888 34.1667 19.8571Z" fill="#4F46BA"/>
</svg>
