<svg width="64" height="64" viewBox="0 0 64 64" fill="none" xmlns="http://www.w3.org/2000/svg">
<rect width="64" height="64" rx="20" fill="#E8F2FF"/>
<rect width="64" height="64" rx="20" fill="#F8F9FD"/>
<path d="M47.3186 22.1032L41.8966 16.6812C41.7857 16.5687 41.6373 16.5078 41.4794 16.5078C41.3232 16.5078 41.1732 16.5687 41.0622 16.6812L32.4106 25.3312L33.2466 26.1656L41.4794 17.9328L46.0654 22.5204L44.631 23.9548L42.0326 21.3548C41.8013 21.1251 41.4294 21.1251 41.1982 21.3548C40.967 21.5876 40.967 21.9594 41.1982 22.1891L43.7966 24.7891L42.1529 26.4329L40.5122 24.7922C40.281 24.5594 39.9091 24.5594 39.6779 24.7922C39.4466 25.0219 39.4466 25.3954 39.6779 25.6266L41.3185 27.2672L39.6748 28.911L37.0748 26.311C36.8435 26.0798 36.4716 26.0798 36.2404 26.311C36.0092 26.5423 36.0092 26.9141 36.2404 27.1454L38.8404 29.7454L37.8373 30.7485L38.6716 31.5829L47.3232 22.9328C47.5482 22.7078 47.5482 22.3344 47.3186 22.1032L47.3186 22.1032Z" fill="#4F46BA"/>
<path d="M29.7514 38.8344L27.153 36.236C26.9217 36.0047 26.5499 36.0047 26.3186 36.236C26.0874 36.4672 26.0874 36.8391 26.3186 37.0703L28.9171 39.6688L27.2733 41.3141L25.6327 39.6734C25.4014 39.4422 25.028 39.4422 24.7967 39.6734C24.5655 39.9047 24.5655 40.2766 24.7967 40.5078L26.4374 42.1484L24.7936 43.7906L22.1952 41.1938C21.9639 40.9609 21.5905 40.9609 21.3593 41.1938C21.128 41.4234 21.128 41.7969 21.3593 42.0281L23.9577 44.6266L22.5233 46.0625L17.9373 41.4733L26.1685 33.2421L25.3342 32.4077L16.6842 41.0561C16.4529 41.2874 16.4529 41.6592 16.6842 41.8905L22.1062 47.3141C22.2171 47.4235 22.3656 47.4875 22.5234 47.4875C22.6796 47.4875 22.8296 47.4234 22.9406 47.3141L31.5906 38.6641L30.7547 37.8297L29.7514 38.8344Z" fill="#4F46BA"/>
<path d="M44.6748 39.2657L25.1156 19.7065L23.8094 18.3971C22.8844 17.469 21.3016 17.4128 20.4453 18.2721L18.2718 20.4471C17.3812 21.3378 17.439 22.8471 18.3984 23.808L39.2656 44.6769C39.5375 44.9456 39.9906 45.3925 44.9704 46.5206C45.0735 46.5425 45.1766 46.555 45.2798 46.555C45.6267 46.555 45.9501 46.4237 46.1891 46.1831C46.4954 45.8737 46.6188 45.4222 46.5204 44.9738C45.3923 39.9845 44.9423 39.5345 44.6751 39.2657L44.6748 39.2657ZM19.234 22.9721C18.7324 22.4721 18.6746 21.7127 19.1059 21.2799L21.2778 19.108C21.4637 18.9205 21.7246 18.8174 22.009 18.8174C22.3559 18.8174 22.7074 18.9689 22.9715 19.233L23.8621 20.1237L20.123 23.8627L19.234 22.9721ZM39.1152 41.3253C38.909 41.2612 38.684 41.3159 38.5308 41.4659C38.3777 41.6175 38.3168 41.8393 38.3746 42.0472L38.4012 42.1425L20.9592 24.6973L24.6998 20.9582L42.0294 38.291C41.8263 38.2379 41.6122 38.291 41.4638 38.4363C41.3106 38.5879 41.2513 38.8097 41.3091 39.0144L41.6169 40.1238L40.5825 39.8082C40.3763 39.7441 40.1513 39.8003 39.9982 39.9519C39.8435 40.1003 39.7841 40.3253 39.8419 40.5331L40.1497 41.6394L39.1152 41.3253ZM40.0996 43.8409L39.8027 42.769L40.8308 43.0847C41.0402 43.1456 41.2714 43.0878 41.4246 42.9331C41.5746 42.7815 41.6339 42.5612 41.5746 42.3565L41.2683 41.2534L42.2996 41.5675C42.5042 41.6316 42.7292 41.5753 42.8839 41.4237C43.037 41.2753 43.098 41.0519 43.0402 40.8456L42.7292 39.7253L43.7636 40.0284L43.8417 40.105C43.9261 40.1894 44.0761 40.4519 44.3074 41.1519L41.1542 44.3081C40.448 44.0722 40.187 43.9253 40.0996 43.8409L40.0996 43.8409ZM45.3512 45.3534C45.3371 45.3659 45.3121 45.3753 45.2824 45.3753L45.2355 45.3675C44.0543 45.1018 43.148 44.8753 42.4402 44.6847L44.6871 42.4378C44.8777 43.144 45.1027 44.0503 45.3714 45.23C45.3793 45.2831 45.3714 45.3316 45.3511 45.3534L45.3512 45.3534Z" fill="#4F46BA"/>
</svg>
