<svg width="64" height="64" viewBox="0 0 64 64" fill="none" xmlns="http://www.w3.org/2000/svg">
<rect width="64" height="64" rx="20" fill="#E8F2FF"/>
<rect width="64" height="64" rx="20" fill="#F8F9FD"/>
<path d="M44.5 14.5H49.5V19.5H44.5V14.5ZM44.5 22H49.5V27H44.5V22ZM37 14.5H42V19.5H37V14.5ZM37 22H42V27H37V22Z" fill="#4F46BA"/>
<path d="M47 32V39.5H17V19.5H32V17H17C16.337 17 15.7011 17.2634 15.2322 17.7322C14.7634 18.2011 14.5 18.837 14.5 19.5V39.5C14.5 40.163 14.7634 40.7989 15.2322 41.2678C15.7011 41.7366 16.337 42 17 42H27V47H22V49.5H42V47H37V42H47C47.663 42 48.2989 41.7366 48.7678 41.2678C49.2366 40.7989 49.5 40.163 49.5 39.5V32H47ZM34.5 47H29.5V42H34.5V47Z" fill="#4F46BA"/>
</svg>
