<svg width="208" height="104" viewBox="0 0 208 104" fill="none" xmlns="http://www.w3.org/2000/svg">
<path opacity="0.1" d="M200.083 64.2014C205.31 76.8193 208 90.343 208 104L138.943 104C138.943 99.4116 138.04 94.8677 136.284 90.6282C134.527 86.3887 131.954 82.5365 128.709 79.2917C125.464 76.0469 121.612 73.473 117.372 71.7169C113.133 69.9609 108.589 69.057 104 69.057C99.4112 69.057 94.8673 69.9608 90.6277 71.7169C86.3882 73.473 82.536 76.0469 79.2912 79.2917C76.0464 82.5365 73.4725 86.3886 71.7164 90.6282C69.9604 94.8677 69.0565 99.4116 69.0565 104L-4.54598e-06 104C-3.949e-06 90.343 2.69006 76.8193 7.91652 64.2014C13.143 51.5835 20.8036 40.1187 30.4609 30.4614C40.1182 20.8041 51.5831 13.1435 64.2009 7.917C76.8188 2.69051 90.3425 0.000474018 104 0.000483735C117.657 0.000484332 131.181 2.69052 143.799 7.91701C156.417 13.1435 167.882 20.8041 177.539 30.4614C187.196 40.1187 194.857 51.5836 200.083 64.2014Z" fill="white"/>
</svg>
