<svg width="174" height="348" viewBox="0 0 174 348" fill="none" xmlns="http://www.w3.org/2000/svg">
<path opacity="0.1" d="M107.413 13.245C128.524 4.50064 151.15 0 174 0V115.537C166.323 115.537 158.72 117.049 151.627 119.987C144.534 122.925 138.089 127.232 132.66 132.66C127.232 138.089 122.925 144.534 119.987 151.627C117.049 158.72 115.537 166.323 115.537 174C115.537 181.677 117.049 189.28 119.987 196.373C122.925 203.466 127.232 209.911 132.66 215.34C138.089 220.768 144.534 225.075 151.627 228.013C158.72 230.951 166.323 232.463 174 232.463V348C151.15 348 128.524 343.499 107.413 334.755C86.3024 326.011 67.1208 313.194 50.9634 297.037C34.806 280.879 21.9893 261.698 13.2449 240.587C4.50063 219.476 -1.52587e-05 196.85 0 174C0 151.15 4.50064 128.524 13.2449 107.413C21.9893 86.3025 34.806 67.1208 50.9634 50.9634C67.1208 34.806 86.3024 21.9893 107.413 13.245Z" fill="#1E5AFA"/>
</svg>
