<svg width="1440" height="664" viewBox="0 0 1440 664" fill="none" xmlns="http://www.w3.org/2000/svg">
<path opacity="0.2" fill-rule="evenodd" clip-rule="evenodd" d="M1454.45 151.565C1422.65 134.204 1365.49 112.11 1297.32 102.209C1229.15 92.3088 1149.93 94.5984 1074.02 126.042C1050.28 135.879 1033.81 147.954 1022.67 161.591C1011.54 175.231 1005.75 190.406 1003.33 206.406C999.156 233.925 1004.92 263.934 1010.47 292.797C1011.37 297.452 1012.25 302.077 1013.1 306.657C1016.13 323.169 1018.53 339.101 1018.35 353.788C1018.17 368.471 1015.4 381.876 1008.12 393.353C993.557 416.294 960.789 431.756 893.695 434.005C792.722 437.389 723.522 407.807 664.894 382.743L664.893 382.743C645.642 374.513 627.531 366.771 609.808 360.843C573.965 348.853 539.732 344.31 500.988 358.307C462.269 372.295 419.107 404.776 365.335 466.676C311.635 528.494 266.82 546.85 226.844 541.236C186.809 535.613 151.447 505.938 116.691 471.213C108.295 462.825 99.9361 454.143 91.5573 445.441L91.5569 445.441C65.2959 418.166 38.8433 390.692 10.4929 371.458C-8.21891 358.763 -27.7892 349.632 -48.7178 346.505C-69.6536 343.377 -91.9168 346.263 -116 357.552L-115.576 358.457C-91.6588 347.246 -69.5939 344.397 -48.8656 347.494C-28.1301 350.592 -8.7004 359.644 9.9315 372.285C38.1869 391.455 64.5345 418.819 90.7782 446.075C99.171 454.792 107.553 463.497 115.984 471.92C150.728 506.633 186.303 536.552 226.705 542.226C267.166 547.908 312.289 529.265 366.09 467.332C419.817 405.483 462.843 373.151 501.327 359.248C539.786 345.354 573.772 349.843 609.491 361.791C627.114 367.686 645.163 375.402 664.373 383.615C723.029 408.692 792.51 438.397 893.729 435.004C960.885 432.753 994.118 417.277 1008.96 393.889C1016.38 382.203 1019.17 368.596 1019.35 353.8C1019.53 339.009 1017.11 322.996 1014.08 306.476C1013.24 301.913 1012.36 297.311 1011.47 292.685L1011.45 292.583C1005.9 263.705 1000.17 233.89 1004.32 206.556C1006.72 190.704 1012.44 175.703 1023.45 162.224C1034.46 148.742 1050.77 136.755 1074.4 126.966C1150.1 95.61 1229.13 93.3162 1297.18 103.199C1365.23 113.082 1422.27 135.138 1453.97 152.443L1454.45 151.565ZM1317.32 142.209C1385.49 152.11 1442.65 174.204 1474.45 191.565L1473.97 192.443C1442.27 175.138 1385.23 153.082 1317.18 143.199C1249.13 133.316 1170.1 135.61 1094.4 166.966C1070.77 176.755 1054.46 188.742 1043.45 202.224C1032.44 215.703 1026.72 230.704 1024.32 246.556C1020.17 273.89 1025.9 303.705 1031.45 332.583L1031.47 332.685L1031.49 332.811C1032.37 337.395 1033.25 341.954 1034.08 346.476C1037.11 362.996 1039.53 379.009 1039.35 393.8C1039.17 408.596 1036.38 422.203 1028.96 433.889C1014.12 457.277 980.885 472.753 913.729 475.004C812.51 478.397 743.029 448.692 684.373 423.615C665.163 415.402 647.114 407.686 629.491 401.791C593.772 389.843 559.786 385.354 521.327 399.248C482.843 413.151 439.817 445.483 386.09 507.332C332.289 569.265 287.166 587.908 246.705 582.226C206.303 576.552 170.728 546.633 135.984 511.92C127.553 503.497 119.171 494.792 110.778 486.075C84.5345 458.819 58.1869 431.455 29.9315 412.285C11.2996 399.644 -8.13014 390.592 -28.8656 387.494C-49.5939 384.397 -71.6588 387.246 -95.5756 398.457L-96 397.552C-71.9168 386.263 -49.6536 383.377 -28.7178 386.505C-7.78917 389.632 11.7811 398.763 30.4929 411.458C58.8433 430.692 85.2959 458.166 111.557 485.441L111.557 485.441C119.936 494.143 128.295 502.825 136.691 511.213C171.447 545.938 206.809 575.613 246.844 581.236C286.82 586.85 331.635 568.494 385.335 506.676C439.107 444.776 482.269 412.295 520.988 398.307C559.732 384.31 593.965 388.853 629.808 400.843C647.531 406.771 665.642 414.513 684.893 422.743L684.894 422.743C743.522 447.807 812.722 477.389 913.696 474.005C980.789 471.756 1013.56 456.294 1028.12 433.353C1035.4 421.876 1038.17 408.471 1038.35 393.788C1038.53 379.101 1036.13 363.169 1033.1 346.657C1032.25 342.077 1031.37 337.452 1030.47 332.797C1024.92 303.934 1019.16 273.925 1023.33 246.406C1025.75 230.406 1031.54 215.231 1042.67 201.591C1053.81 187.954 1070.28 175.879 1094.02 166.042C1169.93 134.598 1249.15 132.309 1317.32 142.209ZM1494.45 231.565C1462.65 214.203 1405.49 192.11 1337.32 182.209C1269.15 172.309 1189.93 174.598 1114.02 206.042C1090.28 215.879 1073.81 227.954 1062.67 241.591C1051.54 255.231 1045.75 270.406 1043.33 286.406C1039.16 313.925 1044.92 343.934 1050.47 372.797C1051.37 377.452 1052.25 382.077 1053.1 386.657C1056.13 403.169 1058.53 419.101 1058.35 433.788C1058.17 448.471 1055.4 461.876 1048.12 473.353C1033.56 496.294 1000.79 511.756 933.696 514.005C832.722 517.389 763.522 487.807 704.894 462.743L704.893 462.743C685.642 454.513 667.531 446.771 649.808 440.843C613.965 428.853 579.732 424.31 540.988 438.307C502.269 452.295 459.107 484.776 405.335 546.676C351.635 608.494 306.82 626.85 266.844 621.236C226.809 615.613 191.447 585.938 156.691 551.213C148.295 542.825 139.936 534.143 131.557 525.441C105.296 498.166 78.8433 470.692 50.4929 451.458C31.7811 438.763 12.2108 429.632 -8.7178 426.505C-29.6536 423.377 -51.9168 426.263 -76 437.552L-75.5756 438.457C-51.6588 427.246 -29.5939 424.397 -8.86557 427.494C11.8699 430.592 31.2996 439.644 49.9315 452.285C78.1869 471.455 104.534 498.819 130.778 526.075C139.171 534.792 147.553 543.497 155.984 551.92C190.728 586.633 226.303 616.552 266.705 622.226C307.166 627.908 352.289 609.265 406.09 547.332C459.817 485.483 502.843 453.151 541.327 439.248C579.786 425.354 613.772 429.843 649.491 441.791C667.114 447.686 685.163 455.402 704.373 463.615C763.029 488.692 832.51 518.397 933.729 515.004C1000.89 512.753 1034.12 497.277 1048.96 473.889C1056.38 462.203 1059.17 448.596 1059.35 433.8C1059.53 419.009 1057.11 402.996 1054.08 386.476C1053.24 381.913 1052.36 377.31 1051.47 372.684L1051.45 372.583C1045.9 343.705 1040.17 313.89 1044.32 286.556C1046.72 270.704 1052.44 255.703 1063.45 242.224C1074.46 228.742 1090.77 216.755 1114.4 206.966C1190.1 175.61 1269.13 173.316 1337.18 183.199C1405.23 193.082 1462.27 215.138 1493.97 232.443L1494.45 231.565ZM1514.45 271.565C1482.65 254.203 1425.49 232.11 1357.32 222.209C1289.15 212.309 1209.93 214.598 1134.02 246.042C1110.28 255.879 1093.81 267.954 1082.67 281.591C1071.54 295.231 1065.75 310.406 1063.33 326.406C1059.16 353.925 1064.92 383.934 1070.47 412.797C1071.37 417.452 1072.25 422.077 1073.1 426.657C1076.13 443.169 1078.53 459.101 1078.35 473.788C1078.17 488.471 1075.4 501.876 1068.12 513.353C1053.56 536.294 1020.79 551.756 953.696 554.005C852.722 557.389 783.522 527.807 724.894 502.743L724.893 502.743C705.642 494.513 687.531 486.771 669.808 480.843C633.965 468.853 599.732 464.31 560.988 478.307C522.269 492.295 479.107 524.776 425.335 586.676C371.635 648.494 326.82 666.85 286.844 661.236C246.809 655.613 211.447 625.938 176.691 591.213C168.299 582.829 159.943 574.15 151.567 565.451L151.559 565.442L151.557 565.441C125.296 538.166 98.8433 510.692 70.4929 491.458C51.7811 478.763 32.2108 469.632 11.2822 466.505C-9.65356 463.377 -31.9168 466.263 -56 477.552L-55.5756 478.457C-31.6588 467.246 -9.59387 464.397 11.1344 467.494C31.8699 470.592 51.2996 479.644 69.9315 492.285C98.1869 511.455 124.534 538.819 150.778 566.075C159.171 574.792 167.553 583.497 175.984 591.92C210.728 626.633 246.303 656.552 286.705 662.226C327.166 667.908 372.289 649.265 426.09 587.332C479.817 525.483 522.843 493.151 561.327 479.248C599.786 465.354 633.772 469.843 669.491 481.791C687.114 487.686 705.163 495.402 724.373 503.615C783.029 528.692 852.51 558.397 953.729 555.004C1020.89 552.753 1054.12 537.277 1068.96 513.889C1076.38 502.203 1079.17 488.596 1079.35 473.8C1079.53 459.009 1077.11 442.996 1074.08 426.476C1073.24 421.913 1072.36 417.31 1071.47 412.684L1071.45 412.583C1065.9 383.705 1060.17 353.89 1064.32 326.556C1066.72 310.704 1072.44 295.703 1083.45 282.224C1094.46 268.742 1110.77 256.755 1134.4 246.966C1210.1 215.61 1289.13 213.316 1357.18 223.199C1425.23 233.082 1482.27 255.138 1513.97 272.443L1514.45 271.565Z" fill="url(#paint0_linear_43_442)"/>
<path opacity="0.2" fill-rule="evenodd" clip-rule="evenodd" d="M1451.39 516.811C1419.26 534.349 1361.53 556.667 1292.66 566.667C1223.8 576.668 1143.77 574.355 1067.1 542.593C1043.11 532.657 1026.48 520.459 1015.23 506.684C1003.98 492.907 998.14 477.579 995.691 461.418C991.477 433.62 997.303 403.307 1002.91 374.151L1002.91 374.136C1003.81 369.439 1004.71 364.772 1005.56 360.151C1008.62 343.471 1011.05 327.377 1010.87 312.54C1010.68 297.708 1007.89 284.166 1000.53 272.571C985.819 249.395 952.716 233.776 884.941 231.505C782.941 228.086 713.038 257.969 653.815 283.287C634.368 291.6 616.073 299.421 598.171 305.409C561.965 317.52 527.386 322.109 488.249 307.97C449.138 293.841 405.539 261.032 351.222 198.503C296.976 136.058 251.705 117.513 211.321 123.185C170.878 128.865 135.155 158.843 100.047 193.92C91.5658 202.393 83.1214 211.163 74.6573 219.954C48.1299 247.506 21.4093 275.258 -7.22824 294.687C-26.1296 307.511 -45.8978 316.734 -67.0378 319.892C-88.185 323.052 -110.673 320.137 -135 308.734L-134.576 307.829C-110.415 319.154 -88.1253 322.032 -67.1856 318.903C-46.2387 315.774 -26.6111 306.629 -7.78968 293.86C20.7529 274.495 47.3685 246.852 73.8786 219.32C82.3566 210.515 90.8238 201.721 99.3398 193.212C134.436 158.147 170.371 127.926 211.182 122.195C252.051 116.455 297.631 135.286 351.977 197.847C406.25 260.324 449.713 292.985 488.589 307.03C527.439 321.065 561.772 316.53 597.854 304.461C615.656 298.506 633.888 290.711 653.293 282.415L653.294 282.415C712.545 257.084 782.729 227.078 884.975 230.505C952.812 232.779 986.38 248.412 1001.37 272.035C1008.87 283.838 1011.68 297.582 1011.87 312.528C1012.05 327.469 1009.6 343.644 1006.54 360.331C1005.69 364.963 1004.79 369.633 1003.89 374.329L1003.88 374.366C998.28 403.536 992.494 433.655 996.679 461.268C999.107 477.281 1004.89 492.435 1016.01 506.052C1027.13 519.672 1043.61 531.781 1067.48 541.669C1143.94 573.344 1223.78 575.661 1292.52 565.678C1361.26 555.694 1418.89 533.414 1450.91 515.933L1451.39 516.811ZM1312.87 526.261C1381.73 516.261 1439.46 493.943 1471.59 476.405L1471.11 475.527C1439.09 493.008 1381.47 515.288 1312.72 525.272C1243.98 535.255 1164.15 532.938 1087.68 501.263C1063.81 491.375 1047.33 479.266 1036.21 465.646C1025.09 452.029 1019.31 436.875 1016.88 420.862C1012.7 393.249 1018.48 363.13 1024.09 333.96L1024.09 333.923C1025 329.227 1025.89 324.557 1026.74 319.925C1029.81 303.238 1032.25 287.063 1032.07 272.122C1031.89 257.176 1029.07 243.432 1021.58 231.629C1006.58 208.006 973.016 192.373 905.178 190.099C802.932 186.672 732.748 216.678 673.497 242.009L673.496 242.009C654.091 250.305 635.859 258.1 618.057 264.055C581.975 276.124 547.642 280.659 508.792 266.624C469.916 252.579 426.453 219.918 372.18 157.441C317.834 94.8803 272.254 76.049 231.385 81.7889C190.574 87.5204 154.639 117.741 119.543 152.806C111.027 161.315 102.56 170.109 94.0816 178.914C67.5715 206.447 40.9559 234.089 12.4133 253.454C-6.4081 266.223 -26.0358 275.368 -46.9826 278.497C-67.9223 281.626 -90.2122 278.748 -114.373 267.423L-114.797 268.328C-90.4702 279.731 -67.982 282.646 -46.8349 279.486C-25.6948 276.328 -5.92662 267.105 12.9747 254.281C41.6123 234.852 68.3329 207.1 94.8603 179.548C103.324 170.757 111.769 161.987 120.25 153.514C155.358 118.437 191.081 88.4591 231.524 82.7791C271.908 77.1075 317.179 95.6517 371.425 158.097C425.742 220.626 469.341 253.435 508.452 267.564C547.589 281.703 582.168 277.114 618.374 265.003C636.276 259.015 654.571 251.194 674.018 242.881C733.241 217.563 803.144 187.68 905.144 191.099C972.919 193.37 1006.02 208.989 1020.73 232.165C1028.09 243.76 1030.89 257.302 1031.07 272.134C1031.25 286.971 1028.82 303.065 1025.76 319.745C1024.91 324.361 1024.02 329.023 1023.12 333.715L1023.11 333.729L1023.11 333.745C1017.51 362.901 1011.68 393.214 1015.89 421.012C1018.34 437.173 1024.19 452.501 1035.44 466.279C1046.68 480.053 1063.32 492.251 1087.3 502.187C1163.98 533.949 1244 536.262 1312.87 526.261ZM1491.79 435.999C1459.67 453.537 1401.93 475.855 1333.07 485.855C1264.2 495.856 1184.18 493.543 1107.5 461.781C1083.52 451.845 1066.89 439.647 1055.64 425.873C1044.39 412.095 1038.55 396.767 1036.1 380.606C1031.88 352.808 1037.71 322.495 1043.31 293.339L1043.32 293.323L1043.32 293.309C1044.22 288.617 1045.12 283.955 1045.96 279.339C1049.03 262.659 1051.46 246.565 1051.27 231.728C1051.09 216.896 1048.3 203.354 1040.94 191.759C1026.22 168.583 993.122 152.964 925.347 150.693C823.347 147.274 753.444 177.157 694.221 202.475C674.774 210.788 656.479 218.609 638.577 224.597C602.37 236.708 567.792 241.297 528.655 227.158C489.544 213.029 445.945 180.22 391.628 117.691C337.382 55.2457 292.111 36.7015 251.727 42.3732C211.284 48.0532 175.561 78.0307 140.453 113.108C131.972 121.581 123.527 130.351 115.063 139.142C88.5359 166.694 61.8153 194.446 33.1777 213.875C14.2764 226.699 -5.49181 235.922 -26.6319 239.08C-47.7791 242.24 -70.2672 239.325 -94.594 227.922L-94.1696 227.017C-70.0092 238.342 -47.7194 241.22 -26.7796 238.091C-5.83276 234.962 13.7949 225.817 32.6163 213.048C61.1589 193.683 87.7745 166.041 114.285 138.508L114.285 138.507C122.763 129.702 131.23 120.909 139.746 112.401C174.842 77.3354 210.777 47.1144 251.588 41.3829C292.457 35.6431 338.037 54.4743 392.383 117.035C446.656 179.512 490.119 212.173 528.995 226.218C567.845 240.253 602.177 235.718 638.26 223.649C656.062 217.694 674.294 209.9 693.699 201.603L693.7 201.603C752.951 176.272 823.135 146.266 925.381 149.693C993.219 151.967 1026.79 167.6 1041.78 191.223C1049.27 203.026 1052.09 216.771 1052.27 231.716C1052.46 246.657 1050.01 262.832 1046.95 279.519C1046.1 284.151 1045.2 288.822 1044.3 293.517L1044.29 293.554C1038.69 322.724 1032.9 352.843 1037.09 380.456C1039.51 396.469 1045.29 411.623 1056.41 425.24C1067.53 438.86 1084.02 450.969 1107.89 460.857C1184.35 492.532 1264.18 494.849 1332.93 484.866C1401.67 474.882 1459.29 452.602 1491.31 435.121L1491.79 435.999ZM1512 395.593C1479.87 413.131 1422.13 435.449 1353.27 445.449C1284.41 455.45 1204.38 453.137 1127.71 421.375C1103.72 411.439 1087.09 399.241 1075.84 385.467C1064.59 371.689 1058.75 356.361 1056.3 340.2C1052.09 312.402 1057.91 282.089 1063.52 252.933L1063.52 252.919L1063.52 252.907L1063.52 252.89C1064.43 248.203 1065.32 243.545 1066.17 238.933C1069.23 222.253 1071.66 206.159 1071.48 191.322C1071.29 176.49 1068.5 162.948 1061.14 151.353C1046.43 128.177 1013.32 112.558 945.55 110.287C843.55 106.868 773.647 136.751 714.424 162.069C694.977 170.382 676.682 178.203 658.78 184.191C622.573 196.302 587.995 200.891 548.858 186.752C509.747 172.623 466.148 139.814 411.831 77.2849C357.585 14.8397 312.314 -3.70447 271.93 1.96716C231.487 7.64722 195.764 37.6248 160.655 72.7019C152.175 81.175 143.73 89.9455 135.266 98.7363C108.739 126.288 82.0183 154.04 53.3807 173.469C34.4794 186.293 14.7112 195.516 -6.42888 198.674C-27.5761 201.834 -50.0643 198.919 -74.391 187.516L-73.9666 186.611C-49.8062 197.936 -27.5164 200.814 -6.57664 197.685C14.3702 194.556 33.9979 185.411 52.8193 172.642C81.3619 153.277 107.977 125.635 134.488 98.1017C142.966 89.2967 151.433 80.5028 159.949 71.9945C195.045 36.9294 230.98 6.7085 271.791 0.976929C312.66 -4.76294 358.24 14.0684 412.586 76.6292C466.859 139.106 510.322 171.767 549.198 185.812C588.048 199.847 622.38 195.312 658.463 183.243C676.265 177.288 694.497 169.494 713.902 161.197L713.903 161.197C773.154 135.866 843.338 105.86 945.584 109.287C1013.42 111.561 1046.99 127.194 1061.98 150.817C1069.47 162.62 1072.29 176.365 1072.48 191.31C1072.66 206.251 1070.21 222.426 1067.15 239.113C1066.3 243.745 1065.4 248.416 1064.5 253.111L1064.49 253.148C1058.89 282.318 1053.1 312.437 1057.29 340.05C1059.72 356.063 1065.5 371.217 1076.62 384.834C1087.74 398.454 1104.22 410.563 1128.09 420.451C1204.55 452.126 1284.39 454.443 1353.13 444.46C1421.87 434.476 1479.5 412.196 1511.52 394.715L1512 395.593Z" fill="url(#paint1_linear_43_442)"/>
<defs>
<linearGradient id="paint0_linear_43_442" x1="71.5" y1="519.5" x2="1500.5" y2="519.5" gradientUnits="userSpaceOnUse">
<stop offset="0.341667" stop-color="#4535AF" stop-opacity="0.7"/>
<stop offset="0.511553" stop-color="#F8EFF4" stop-opacity="0.1"/>
<stop offset="0.851637" stop-color="#4535AF" stop-opacity="0.8"/>
</linearGradient>
<linearGradient id="paint1_linear_43_442" x1="54.4024" y1="145.149" x2="1497.9" y2="145.149" gradientUnits="userSpaceOnUse">
<stop offset="0.310417" stop-color="#4535AF" stop-opacity="0.7"/>
<stop offset="0.461458" stop-color="#F8EFF4" stop-opacity="0.1"/>
<stop offset="0.851637" stop-color="#4535AF" stop-opacity="0.8"/>
</linearGradient>
</defs>
</svg>
