<svg width="23" height="20" viewBox="0 0 23 20" fill="none" xmlns="http://www.w3.org/2000/svg">
<path d="M7.158 19.6066H7.058C5.04345 19.5896 3.05803 19.1397 1.2455 18.2895C0.912092 18.1381 0.637573 17.8875 0.46213 17.5744C0.286686 17.2614 0.219533 16.9022 0.2705 16.5495C0.32593 16.1945 0.495984 15.8654 0.756383 15.6094C1.01678 15.3533 1.35421 15.1833 1.7205 15.1237C2.84376 14.9788 3.92436 14.6128 4.8955 14.0483C3.20945 12.774 1.91144 11.0825 1.13902 9.15309C0.366608 7.22366 0.148564 5.12817 0.508 3.0887C0.556735 2.76565 0.700455 2.46294 0.92206 2.21659C1.14366 1.97024 1.43382 1.79062 1.758 1.69911C2.07339 1.60336 2.41093 1.59927 2.72871 1.68735C3.04649 1.77542 3.33051 1.95178 3.5455 2.19453C4.2755 3.11985 5.19287 3.89171 6.24163 4.46301C7.2904 5.03432 8.44857 5.39309 9.6455 5.51745C9.70267 4.09385 10.3355 2.74881 11.408 1.77161C11.9435 1.27592 12.5757 0.888214 13.2678 0.631077C13.9598 0.37394 14.6979 0.252518 15.439 0.273886C16.1801 0.295254 16.9094 0.458985 17.5844 0.755538C18.2593 1.05209 18.8665 1.47553 19.3705 2.0012C19.5018 2.11341 19.6649 2.18493 19.8388 2.20647C20.0126 2.22801 20.1892 2.1986 20.3455 2.12203C20.6435 1.98615 20.9754 1.935 21.3024 1.97455C21.6294 2.01409 21.938 2.14271 22.1922 2.34538C22.4464 2.54806 22.6358 2.81644 22.7382 3.11921C22.8405 3.42198 22.8518 3.74666 22.7705 4.05536C22.4822 5.20342 21.9359 6.27603 21.1705 7.19703C21.0018 10.6344 19.4341 13.868 16.8092 16.1926C14.1843 18.5172 10.7151 19.7444 7.158 19.6066ZM7.158 17.1899H7.258C8.71134 17.2383 10.1601 17.0072 11.5204 16.5102C12.8807 16.0132 14.1254 15.2601 15.1823 14.2946C16.2392 13.3291 17.0874 12.1704 17.6776 10.8857C18.2678 9.60095 18.5883 8.21574 18.6205 6.81036C18.6411 6.42521 18.8054 6.06033 19.083 5.78328C19.3879 5.4102 19.6479 5.00482 19.858 4.57495C19.4077 4.57577 18.9623 4.48472 18.5508 4.30773C18.1394 4.13074 17.7713 3.87181 17.4705 3.54786C17.1812 3.27062 16.8377 3.05193 16.4599 2.90462C16.0822 2.75731 15.6778 2.68433 15.2705 2.68995C14.8591 2.67966 14.4497 2.74802 14.0657 2.8911C13.6818 3.03418 13.3308 3.24916 13.033 3.5237C12.6312 3.89224 12.3366 4.35632 12.1787 4.8695C12.0207 5.38267 12.005 5.92695 12.133 6.44786L12.458 7.82536L10.9955 7.92203C9.49687 8.04016 7.98958 7.84199 6.57802 7.34126C5.16646 6.84052 3.88435 6.04918 2.8205 5.02203C2.77487 6.61268 3.1865 8.18439 4.00962 9.56243C4.83274 10.9405 6.03509 12.0708 7.483 12.8279L8.6705 13.4804L7.883 14.5679C7.03136 15.6475 5.86448 16.4556 4.533 16.8879C5.38714 17.0948 6.26496 17.1963 7.1455 17.1899H7.158Z" fill="#021145"/>
</svg>
