<svg width="23" height="23" viewBox="0 0 23 23" fill="none" xmlns="http://www.w3.org/2000/svg">
<path fill-rule="evenodd" clip-rule="evenodd" d="M6.98453 0.859457C8.15753 0.805457 8.53153 0.793457 11.5195 0.793457C14.5075 0.793457 14.8815 0.806457 16.0535 0.859457C17.2255 0.912457 18.0255 1.09946 18.7255 1.37046C19.4585 1.64746 20.1235 2.08046 20.6735 2.64046C21.2335 3.18946 21.6655 3.85346 21.9415 4.58746C22.2135 5.28746 22.3995 6.08746 22.4535 7.25746C22.5075 8.43246 22.5195 8.80646 22.5195 11.7935C22.5195 14.7815 22.5065 15.1555 22.4535 16.3285C22.4005 17.4985 22.2135 18.2985 21.9415 18.9985C21.6655 19.7326 21.2328 20.3977 20.6735 20.9475C20.1235 21.5075 19.4585 21.9395 18.7255 22.2155C18.0255 22.4875 17.2255 22.6735 16.0555 22.7275C14.8815 22.7815 14.5075 22.7935 11.5195 22.7935C8.53153 22.7935 8.15753 22.7805 6.98453 22.7275C5.81453 22.6745 5.01453 22.4875 4.31453 22.2155C3.58045 21.9394 2.91535 21.5067 2.36553 20.9475C1.80591 20.3981 1.37285 19.7333 1.09653 18.9995C0.825531 18.2995 0.639531 17.4995 0.585531 16.3295C0.531531 15.1545 0.519531 14.7805 0.519531 11.7935C0.519531 8.80546 0.532531 8.43146 0.585531 7.25946C0.638531 6.08746 0.825531 5.28746 1.09653 4.58746C1.37325 3.85354 1.80665 3.18877 2.36653 2.63946C2.91557 2.07996 3.58 1.6469 4.31353 1.37046C5.01353 1.09946 5.81353 0.913457 6.98353 0.859457H6.98453ZM15.9645 2.83946C14.8045 2.78646 14.4565 2.77546 11.5195 2.77546C8.58253 2.77546 8.23453 2.78646 7.07453 2.83946C6.00153 2.88846 5.41953 3.06746 5.03153 3.21846C4.51853 3.41846 4.15153 3.65546 3.76653 4.04046C3.40158 4.39551 3.12071 4.82774 2.94453 5.30546C2.79353 5.69346 2.61453 6.27546 2.56553 7.34846C2.51253 8.50846 2.50153 8.85646 2.50153 11.7935C2.50153 14.7305 2.51253 15.0785 2.56553 16.2385C2.61453 17.3115 2.79353 17.8935 2.94453 18.2815C3.12053 18.7585 3.40153 19.1915 3.76653 19.5465C4.12153 19.9115 4.55453 20.1925 5.03153 20.3685C5.41953 20.5195 6.00153 20.6985 7.07453 20.7475C8.23453 20.8005 8.58153 20.8115 11.5195 20.8115C14.4575 20.8115 14.8045 20.8005 15.9645 20.7475C17.0375 20.6985 17.6195 20.5195 18.0075 20.3685C18.5205 20.1685 18.8875 19.9315 19.2725 19.5465C19.6375 19.1915 19.9185 18.7585 20.0945 18.2815C20.2455 17.8935 20.4245 17.3115 20.4735 16.2385C20.5265 15.0785 20.5375 14.7305 20.5375 11.7935C20.5375 8.85646 20.5265 8.50846 20.4735 7.34846C20.4245 6.27546 20.2455 5.69346 20.0945 5.30546C19.8945 4.79246 19.6575 4.42546 19.2725 4.04046C18.9175 3.67553 18.4852 3.39467 18.0075 3.21846C17.6195 3.06746 17.0375 2.88846 15.9645 2.83946ZM10.1145 15.1845C10.8992 15.5111 11.7729 15.5552 12.5865 15.3092C13.4 15.0632 14.1029 14.5424 14.5751 13.8357C15.0474 13.129 15.2596 12.2803 15.1756 11.4346C15.0916 10.5888 14.7165 9.79843 14.1145 9.19846C13.7308 8.81493 13.2667 8.52127 12.7559 8.3386C12.245 8.15594 11.7 8.08882 11.16 8.14207C10.6201 8.19533 10.0987 8.36763 9.63334 8.64659C9.16799 8.92554 8.77028 9.3042 8.46883 9.75531C8.16739 10.2064 7.96972 10.7187 7.89005 11.2554C7.81037 11.7921 7.85068 12.3398 8.00807 12.859C8.16546 13.3782 8.43601 13.8561 8.80025 14.2582C9.16449 14.6603 9.61336 14.9766 10.1145 15.1845ZM7.52153 7.79546C8.04656 7.27043 8.66985 6.85396 9.35583 6.56982C10.0418 6.28568 10.777 6.13943 11.5195 6.13943C12.262 6.13943 12.9973 6.28568 13.6832 6.56982C14.3692 6.85396 14.9925 7.27043 15.5175 7.79546C16.0426 8.32048 16.459 8.94378 16.7432 9.62976C17.0273 10.3157 17.1736 11.051 17.1736 11.7935C17.1736 12.536 17.0273 13.2712 16.7432 13.9572C16.459 14.6431 16.0426 15.2664 15.5175 15.7915C14.4572 16.8518 13.0191 17.4475 11.5195 17.4475C10.02 17.4475 8.58187 16.8518 7.52153 15.7915C6.4612 14.7311 5.86551 13.293 5.86551 11.7935C5.86551 10.2939 6.4612 8.85579 7.52153 7.79546ZM18.4275 6.98146C18.5576 6.85873 18.6618 6.71114 18.7338 6.54743C18.8059 6.38372 18.8443 6.20723 18.8469 6.02839C18.8496 5.84955 18.8163 5.672 18.749 5.50627C18.6818 5.34053 18.582 5.18997 18.4555 5.0635C18.329 4.93702 18.1785 4.83721 18.0127 4.76997C17.847 4.70273 17.6694 4.66943 17.4906 4.67204C17.3118 4.67465 17.1353 4.71311 16.9716 4.78515C16.8078 4.8572 16.6603 4.96135 16.5375 5.09146C16.2988 5.34449 16.1682 5.68058 16.1732 6.02839C16.1783 6.3762 16.3187 6.70834 16.5647 6.9543C16.8107 7.20026 17.1428 7.34069 17.4906 7.34576C17.8384 7.35083 18.1745 7.22015 18.4275 6.98146Z" fill="#021145"/>
</svg>
