<svg width="23" height="18" viewBox="0 0 23 18" fill="none" xmlns="http://www.w3.org/2000/svg">
<path d="M4.43555 0.146729C3.30838 0.146729 2.22737 0.594495 1.43034 1.39152C0.633314 2.18855 0.185547 3.26956 0.185547 4.39673V12.8967C0.185547 14.0239 0.633314 15.1049 1.43034 15.9019C2.22737 16.699 3.30838 17.1467 4.43555 17.1467H18.6022C19.7294 17.1467 20.8104 16.699 21.6074 15.9019C22.4044 15.1049 22.8522 14.0239 22.8522 12.8967V4.39673C22.8522 3.26956 22.4044 2.18855 21.6074 1.39152C20.8104 0.594495 19.7294 0.146729 18.6022 0.146729H4.43555ZM3.01888 4.39673C3.01888 4.021 3.16814 3.66067 3.43381 3.39499C3.69949 3.12932 4.05982 2.98006 4.43555 2.98006H18.6022C18.9779 2.98006 19.3383 3.12932 19.6039 3.39499C19.8696 3.66067 20.0189 4.021 20.0189 4.39673V4.8784L11.5189 8.52206L3.01888 4.8784V4.39673ZM3.01888 7.96106L10.9607 11.3639C11.1371 11.4395 11.327 11.4785 11.5189 11.4785C11.7108 11.4785 11.9007 11.4395 12.077 11.3639L20.0189 7.96106V12.8967C20.0189 13.2725 19.8696 13.6328 19.6039 13.8985C19.3383 14.1641 18.9779 14.3134 18.6022 14.3134H4.43555C4.05982 14.3134 3.69949 14.1641 3.43381 13.8985C3.16814 13.6328 3.01888 13.2725 3.01888 12.8967V7.96106Z" fill="#021145"/>
</svg>
