<svg width="29" height="29" viewBox="0 0 29 29" fill="none" xmlns="http://www.w3.org/2000/svg">
<path d="M22.08 15.4396C21.9409 15.3001 21.7756 15.1895 21.5936 15.1141C21.4116 15.0386 21.2165 14.9998 21.0195 14.9998C20.8225 14.9998 20.6275 15.0386 20.4455 15.1141C20.2635 15.1895 20.0982 15.3001 19.959 15.4396L17.568 17.8306C16.4595 17.5006 14.391 16.7506 13.08 15.4396C11.769 14.1286 11.019 12.0601 10.689 10.9516L13.08 8.56056C13.2195 8.42138 13.3301 8.25607 13.4055 8.0741C13.481 7.89213 13.5198 7.69706 13.5198 7.50006C13.5198 7.30306 13.481 7.10799 13.4055 6.92602C13.3301 6.74405 13.2195 6.57874 13.08 6.43956L7.08004 0.439557C6.94086 0.300139 6.77556 0.189532 6.59358 0.114066C6.41161 0.0386 6.21654 -0.000244141 6.01954 -0.000244141C5.82254 -0.000244141 5.62748 0.0386 5.4455 0.114066C5.26353 0.189532 5.09823 0.300139 4.95904 0.439557L0.891044 4.50756C0.321044 5.07756 4.35663e-05 5.86056 0.0120436 6.66006C0.0465436 8.79606 0.612044 16.2151 6.45904 22.0621C12.306 27.9091 19.725 28.4731 21.8625 28.5091H21.9045C22.6965 28.5091 23.445 28.1971 24.012 27.6301L28.08 23.5621C28.2195 23.4229 28.3301 23.2576 28.4055 23.0756C28.481 22.8936 28.5198 22.6986 28.5198 22.5016C28.5198 22.3046 28.481 22.1095 28.4055 21.9275C28.3301 21.7455 28.2195 21.5802 28.08 21.4411L22.08 15.4396ZM21.8895 25.5076C20.0175 25.4761 13.6125 24.9736 8.58004 19.9396C3.53104 14.8906 3.04204 8.46306 3.01204 6.62856L6.01954 3.62106L9.89854 7.50006L7.95904 9.43956C7.78274 9.61573 7.65311 9.83306 7.58187 10.0719C7.51064 10.3108 7.50004 10.5636 7.55104 10.8076C7.58704 10.9801 8.46754 15.0706 10.9575 17.5606C13.4475 20.0506 17.538 20.9311 17.7105 20.9671C17.9544 21.0195 18.2075 21.0097 18.4465 20.9387C18.6856 20.8677 18.9029 20.7376 19.0785 20.5606L21.0195 18.6211L24.8985 22.5001L21.8895 25.5076Z" fill="#021145"/>
</svg>
