<svg width="195" height="198" viewBox="0 0 195 198" fill="none" xmlns="http://www.w3.org/2000/svg">
<mask id="mask0_46_191" style="mask-type:alpha" maskUnits="userSpaceOnUse" x="0" y="0" width="195" height="198">
<rect width="195" height="198" fill="white"/>
</mask>
<g mask="url(#mask0_46_191)">
<path opacity="0.1" d="M128.413 34.245C149.524 25.5006 172.15 21 195 21V136.537C187.323 136.537 179.72 138.049 172.627 140.987C165.534 143.925 159.089 148.232 153.66 153.66C148.232 159.089 143.925 165.534 140.987 172.627C138.049 179.72 136.537 187.323 136.537 195C136.537 202.677 138.049 210.28 140.987 217.373C143.925 224.466 148.232 230.911 153.66 236.34C159.089 241.768 165.534 246.075 172.627 249.013C179.72 251.951 187.323 253.463 195 253.463V369C172.15 369 149.524 364.499 128.413 355.755C107.302 347.011 88.1208 334.194 71.9634 318.037C55.806 301.879 42.9893 282.698 34.2449 261.587C25.5006 240.476 21 217.85 21 195C21 172.15 25.5006 149.524 34.2449 128.413C42.9893 107.302 55.806 88.1208 71.9634 71.9634C88.1208 55.806 107.302 42.9893 128.413 34.245Z" fill="#00AEEF"/>
</g>
</svg>
