<svg width="445" height="831" viewBox="0 0 445 831" fill="none" xmlns="http://www.w3.org/2000/svg">
<path d="M68.5337 1C16.5952 10.6724 -49.0919 109.942 60.3865 164.921C74.8139 170.521 111.409 174.594 142.368 146.086C181.067 110.451 132.184 38.1623 78.2086 69.2157C24.2332 100.269 48.6749 179.175 114.871 195.466C181.067 211.756 209.073 214.811 228.932 236.701C248.791 258.591 273.233 295.244 256.938 347.679C242.214 395.062 168.858 422.906 169.516 357.958C169.679 341.924 176.263 326.648 185.386 313.462C232.99 244.653 284.069 235.683 300.22 235.683C314.628 235.683 403.592 239.207 376.15 343.402C371.704 360.285 362.051 375.244 350.897 388.675C306.438 442.211 240.278 529.164 228.932 564.034C219.597 593.763 210.236 653.853 228.932 692.574C249.934 736.069 296.597 800.166 449 830" stroke="#021145" stroke-width="0.5" stroke-linecap="round"/>
</svg>
