<svg width="102" height="127" viewBox="0 0 102 127" fill="none" xmlns="http://www.w3.org/2000/svg">
<path fill-rule="evenodd" clip-rule="evenodd" d="M15.2596 23.9401C19.4505 15.5526 24.5878 7.77718 30.0172 0.209725C30.6376 0.369192 30.0925 0.755642 30.3137 0.999606C30.6654 1.16197 31.0568 0.314518 31.5091 1.06836C31.925 1.76091 31.6785 2.28156 31.3857 2.81878C29.8444 5.64653 27.6185 8.03481 26.2753 11.0171C25.8155 12.0368 25.6146 13.2856 24.4809 14.0801C23.783 14.5688 23.9474 15.8048 23.3307 16.6187C22.9447 17.1286 22.7301 17.8419 22.3006 18.4172C20.5891 20.7077 19.6029 23.2985 19.3217 26.1462C19.2711 26.659 19.0574 27.1233 18.5819 27.139C17.2854 27.1825 15.9977 27.7197 14.7269 26.5852C13.8045 25.7614 13.7188 25.0154 13.9797 24.0222C14.6089 21.6293 15.8569 19.5177 17.0817 17.4078C18.5144 14.94 20.1414 12.5885 21.659 10.1754C23.7002 6.92972 25.9853 3.86464 28.1528 0.713808C28.3591 0.41434 28.5567 -0.204891 29.009 0.0676538C29.3495 0.272683 28.9908 0.763098 28.7965 1.06132C27.5713 2.9418 26.2595 4.75848 24.9159 6.55943C23.6281 8.28541 22.5487 10.1762 21.4734 12.0493C19.7359 15.0771 17.8214 18.0034 16.2491 21.1256C15.8009 22.0158 15.3573 22.9175 15.2596 23.9401Z" fill="black"/>
<path fill-rule="evenodd" clip-rule="evenodd" d="M8.636 60.1375C7.84861 60.7704 7.27908 59.7855 7.03014 59.5854C6.35665 59.0445 5.30085 59.6024 5.03784 58.962C4.63979 57.9924 3.78115 57.1719 4.13736 55.8729C4.82577 53.3604 5.86914 50.9953 6.8392 48.5966C7.54251 46.8578 8.21269 45.102 9.23991 43.5123C9.69801 42.8036 10.2245 42.1786 11.0019 41.8224C11.7993 41.4566 12.4993 41.4306 13.2672 42.0879C13.8355 42.5742 14.5682 42.8935 15.0942 43.4651C15.595 44.0085 15.9926 44.5772 15.402 45.3178C14.9874 45.8372 15.0623 46.5182 14.8536 47.1105C14.0144 49.4905 13.6951 52.0536 12.3489 54.2542C11.3507 55.8866 10.613 57.6432 9.8434 59.3862C9.62304 59.8853 9.40973 60.4884 8.636 60.1375Z" fill="black"/>
<path fill-rule="evenodd" clip-rule="evenodd" d="M58.2784 42.313C58.0933 42.7305 57.974 42.9989 57.8588 43.2582C57.9955 43.4367 58.1218 43.3303 58.2577 43.2922C58.5365 43.2135 58.6321 42.6796 58.9697 42.8929C59.3781 43.1509 58.8529 43.4599 58.8844 43.7656C59.3313 43.8696 59.4502 43.3174 59.8147 43.3021C60.3797 44.1711 60.0831 44.8707 59.5571 45.6502C58.1276 47.7684 56.8888 49.9948 56.0546 52.4311C55.7398 53.351 54.5614 53.8004 54.5386 54.8683C54.5096 56.2227 53.8775 57.3986 53.1672 58.367C51.9403 60.0396 51.6781 62.0074 50.9479 63.8254C50.7424 64.3369 51.0241 64.9669 50.5188 65.3861C50.3556 65.5215 50.0992 65.8301 49.9927 65.57C49.6274 64.6811 48.9154 65.1094 48.326 64.9619C47.2321 64.6881 47.0167 63.6154 46.9098 62.6718C46.7417 61.1848 47.1708 59.7467 47.7743 58.4213C50.0839 53.3461 52.77 48.4771 56.0931 43.9859C56.5992 43.3017 57.0532 42.443 58.2784 42.313Z" fill="black"/>
<path fill-rule="evenodd" clip-rule="evenodd" d="M42.9744 22.1607C42.7209 22.9505 42.4762 23.7773 42.1912 24.5904C40.3865 29.7447 38.0454 34.6575 35.5097 39.4854C34.5376 41.3361 33.4172 43.1122 32.6815 45.0871C32.4711 45.6529 32.093 46.0994 31.4182 45.4976C31.2592 45.3555 31.0231 45.2913 30.8127 45.2167C29.4131 44.7214 28.8663 43.6486 29.3054 42.1927C29.7552 40.6991 30.5873 39.391 31.3938 38.0796C34.806 32.5331 38.0156 26.8821 40.4656 20.8298C40.7763 20.0627 40.8662 20.0636 41.4108 20.6476C41.4701 20.7109 41.5902 20.7569 41.6763 20.7491C42.6924 20.6583 42.7847 21.4031 42.9744 22.1607Z" fill="black"/>
<path fill-rule="evenodd" clip-rule="evenodd" d="M8.76018 80.0505C7.82989 82.3398 6.30894 84.0919 5.42255 86.165C4.52663 88.2604 3.44184 90.2805 2.87936 92.5172C3.69492 90.7241 4.50592 88.9285 5.32687 87.1375C6.26959 85.0827 7.46498 83.1736 8.64007 81.2468C9.22989 80.28 9.8922 80.3293 10.5562 80.8615C11.2044 81.3818 11.339 82.2578 10.7285 82.8683C9.48462 84.1122 8.78504 85.7015 8.33066 87.2626C7.53953 89.9814 6.14865 92.5014 5.72947 95.3408C5.63296 95.9952 5.15953 96.5531 5.0622 97.2821C4.95285 98.1023 4.91018 98.8047 5.31693 99.5689C5.55261 100.013 6.13415 100.597 5.61764 101.092C5.19515 101.498 4.57634 101.795 3.8722 101.426C3.60338 101.285 3.21154 101.377 2.87563 101.366C0.911485 101.299 -0.247864 100.02 0.0449764 98.0385C0.437639 95.3818 1.43545 92.897 2.48918 90.4433C3.86971 87.2278 5.37078 84.0745 7.41403 81.2107C7.71557 80.7882 7.96823 80.3214 8.76018 80.0505Z" fill="black"/>
<path fill-rule="evenodd" clip-rule="evenodd" d="M62.3141 105.105C59.6541 105.099 58.8526 103.935 59.7527 101.729C60.4564 100.004 61.6534 98.5827 62.8091 97.1587C65.5067 93.8351 68.3146 90.6068 71.3039 87.5355C72.035 86.7842 72.9226 86.5153 73.8338 86.2366C74.152 86.1397 74.8611 85.9483 74.8341 86.2254C74.7778 86.792 75.3465 87.3069 74.8346 87.9133C72.5482 90.6209 70.5078 93.5195 68.3937 96.3609C67.4618 97.6139 66.4304 98.7952 65.5328 100.071C64.926 100.935 64.3056 101.867 64.9211 103.03C64.9948 103.168 64.9567 103.532 64.8912 103.554C63.8408 103.904 63.2059 105.023 62.3141 105.105Z" fill="black"/>
<path fill-rule="evenodd" clip-rule="evenodd" d="M89.5052 44.8725C90.8713 43.3379 91.7212 41.4715 93.0682 39.9464C93.465 39.4974 93.9405 39.1077 94.2797 38.6206C94.8397 37.8158 95.4159 38.4292 95.7862 38.6827C96.1457 38.9283 96.3143 39.4991 95.9286 40.0392C94.3539 42.2448 93.0872 44.6592 92.0236 47.1162C91.2656 48.8679 90.0072 50.4021 89.7446 52.4404C89.6448 53.212 89.1175 54.1026 88.8251 54.9666C88.4341 56.1218 87.631 55.1654 87.0113 55.1232C86.9136 55.1165 86.827 54.8291 86.7375 54.8307C86.356 54.8361 86.1315 55.8074 85.6846 55.1335C85.0782 54.219 84.4308 53.3562 84.855 52.0042C85.5289 49.8583 86.564 47.9223 87.6968 46.0223C89.2327 43.4464 90.6492 40.7798 92.835 38.6541C92.9961 38.4975 93.144 38.3257 93.3163 38.1823C93.494 38.0345 93.733 37.9081 93.9235 38.09C94.1658 38.3215 94.0374 38.6015 93.8253 38.7755C91.9718 40.2931 91.0485 42.4822 89.7496 44.3991C89.651 44.5449 89.586 44.7143 89.5052 44.8725Z" fill="black"/>
<path fill-rule="evenodd" clip-rule="evenodd" d="M43.7832 82.9959C44.3548 82.4566 45.0001 81.9753 45.4785 81.3636C46.0369 80.6499 46.6586 80.4933 47.4452 80.8044C47.9128 80.99 47.8134 81.4804 47.7682 81.7931C47.6519 82.5979 47.1755 83.2179 46.3976 83.5046C46.2117 83.5729 45.9317 83.4321 45.9321 83.7684C45.9362 85.4115 44.4952 86.2863 43.876 87.6027C43.6859 88.0061 43.3317 88.3892 43.0824 88.803C42.3542 90.0113 41.7586 91.3239 40.2153 91.7865C39.8558 91.8942 39.2858 92.216 39.4801 92.7624C40.0728 94.4287 38.9056 95.5417 38.2433 96.7772C37.1547 98.8072 35.7738 100.672 34.7644 102.752C34.6505 102.986 34.5801 103.32 34.2529 103.238C33.844 103.136 34.3858 102.774 34.1021 102.56C33.5926 102.831 33.1453 103.564 32.4349 102.699C32.1814 102.391 31.8091 102.912 31.6268 103.24C31.4881 103.489 31.3356 103.723 31.0229 103.54C30.6448 103.319 30.9707 103.087 31.0705 102.884C32.8897 99.1763 35.1368 95.7285 37.4687 92.332C39.5223 89.3407 41.5755 86.3489 43.6287 83.3584C43.6797 83.2382 43.7314 83.1173 43.7832 82.9959Z" fill="black"/>
<path fill-rule="evenodd" clip-rule="evenodd" d="M63.6666 69.8361C64.9258 67.8877 66.1945 65.9418 67.5957 64.0845C65.9973 65.2832 64.0704 68.0649 63.6666 69.8361ZM66.1307 72.7936C65.7389 72.9079 66.7379 71.546 65.6701 72.3823C65.6415 72.4047 65.5852 72.4391 65.5724 72.4291C64.8686 71.8828 64.249 71.9134 63.6049 72.5811C63.4359 72.7563 62.1245 71.2867 62.0964 70.8527C62.0541 70.1974 62.2198 69.5769 62.5081 69.0033C64.1351 65.7634 66.4239 63.0715 69.3159 60.8932C70.7325 59.8258 72.2186 59.9422 73.7019 60.737C74.4984 61.1641 74.4947 61.6773 73.8324 62.3164C73.1353 62.9886 72.4721 63.7015 71.8479 64.4421C71.1276 65.2966 70.5245 66.2347 69.7318 67.0478C68.6905 68.1152 68.3318 69.6291 67.5746 70.8966C67.1558 71.5962 66.7872 72.3061 66.1307 72.7936Z" fill="black"/>
<path fill-rule="evenodd" clip-rule="evenodd" d="M99.1334 74.7407C98.9677 75.3061 98.8679 75.6462 98.7159 76.1647C98.9685 75.9692 99.1226 75.91 99.169 75.8036C99.5459 74.942 100.238 75.1649 100.784 75.4436C101.368 75.7418 101.52 76.4153 101.286 76.996C100.905 77.9437 100.464 78.8823 99.9266 79.7492C99.1848 80.9455 98.3456 82.1015 97.8403 83.4079C97.3122 84.7723 96.5422 86.0998 96.8714 87.704C97.0272 88.4611 96.3947 88.906 95.703 88.5962C95.3273 88.4272 94.9893 88.4462 94.6178 88.4649C92.2635 88.5825 91.0478 86.9129 91.9623 84.665C93.2517 81.4968 95.3327 78.8185 97.4998 76.2136C97.914 75.7158 98.1994 75.0534 99.1334 74.7407Z" fill="black"/>
<path fill-rule="evenodd" clip-rule="evenodd" d="M13.3097 124.22C13.2956 125.066 14.0093 125.477 14.1079 126.152C13.0649 126.294 12.4076 125.729 12.1794 124.564C11.9317 123.299 12.3272 122.134 12.9427 121.126C14.2525 118.98 15.3455 116.711 17.1751 114.858C17.8908 114.133 18.3858 112.96 19.082 112.083C21.0665 109.582 23.1379 107.15 25.1841 104.698C25.5949 104.205 26.0825 103.792 26.6449 103.471C26.9328 103.306 27.2165 103.269 27.4845 103.484C27.7724 103.716 27.7405 104.012 27.5798 104.297C27.3408 104.722 27.1262 105.17 26.8276 105.55C24.0628 109.062 21.223 112.519 18.5361 116.089C17.4894 117.481 16.6722 119.079 16.1089 120.75C15.8488 121.521 16.1275 122.368 16.2158 123.179C16.2394 123.4 16.548 123.701 16.1569 123.867C15.406 124.186 14.7768 124.501 15.4375 125.479C15.5878 125.702 15.2461 125.819 15.0084 125.825C14.5834 125.835 14.0942 125.828 14.0441 125.3C13.9985 124.815 13.7239 124.569 13.3097 124.22Z" fill="black"/>
<path fill-rule="evenodd" clip-rule="evenodd" d="M31.3129 66.5309C31.0693 66.3582 30.9326 66.3251 30.8262 66.584C30.4385 67.5271 30.1154 68.51 29.6093 69.386C29.3032 69.9154 29.369 71.0072 28.1968 70.6887C28.0105 70.6382 28.0486 70.873 28.1331 71.006C28.3306 71.3166 28.208 71.5444 27.9939 71.8058C27.6286 72.2511 27.5279 72.7452 27.6228 73.3557C27.7988 74.4832 27.0143 75.0328 25.9829 74.5702C25.8591 74.5142 25.6392 74.3262 25.628 74.4041C25.3645 76.2415 24.3688 73.8051 23.9625 74.6953C23.6576 74.4418 23.5143 74.1191 23.4795 73.7206C23.4 72.8073 23.7736 72.0348 24.1973 71.2764C25.8028 68.4031 28.1024 66.1097 30.4609 63.8776C31.0287 63.3395 31.8845 63.3105 32.6205 63.0939C33.0525 62.9667 33.3073 63.3246 33.4709 63.6667C33.695 64.1356 33.4481 64.1845 33.0645 64.0594C33.0136 64.9006 32.4635 65.483 32.0121 66.1217C31.8132 66.4029 31.6844 66.743 31.3129 66.5309Z" fill="black"/>
<path fill-rule="evenodd" clip-rule="evenodd" d="M64.8874 20.344C64.7946 20.2752 64.7022 20.2065 64.6098 20.1377C64.0772 20.9814 63.5395 21.8218 63.0197 22.6734C62.9593 22.7728 62.8408 22.9522 63.0206 23.0607C63.1456 23.1361 63.3602 23.1576 63.4029 22.9994C63.6733 21.9908 64.6198 21.3492 64.8874 20.344ZM60.962 30.5857C60.6327 31.0616 60.8675 31.8751 59.83 31.9405C59.0798 31.9881 59.2153 31.6257 59.2149 31.2397C58.57 31.2977 58.828 32.0639 58.2568 32.216C58.0216 31.1792 58.4039 30.1868 58.3575 29.1906C58.3645 29.1612 58.3691 29.1289 58.372 29.0941C59.173 28.4065 59.3578 27.3777 59.8018 26.4938C59.9849 26.1284 60.0491 25.6927 60.274 25.3618C62.084 22.6989 63.5569 19.8235 65.5066 17.2434C67.0346 15.2213 68.3878 13.0683 70.0197 11.1203C70.395 10.6725 70.7268 10.1817 71.532 9.7124C70.9107 10.8374 70.4377 11.6931 69.9651 12.5489C69.9767 12.5149 69.987 12.4801 69.9961 12.4441C68.7506 13.4303 68.2432 14.9529 67.1767 16.0894C67.5411 16.398 67.6505 16.0762 67.8257 16.0397C68.1256 15.978 68.3107 16.1661 68.4267 16.4241C68.4839 16.5504 68.5978 16.7368 68.3961 16.7886C67.5014 17.0185 67.7159 17.7607 67.6898 18.3493C67.6609 19 67.3071 19.3575 66.7985 19.6483C66.0148 20.096 65.5488 20.731 65.6329 21.6791C65.4954 21.8825 65.3583 22.0862 65.2208 22.2896C64.3642 22.7096 63.139 24.7554 63.226 25.6198C62.7372 25.6451 62.5442 26.5712 61.879 26.0634C61.6819 25.5158 61.57 25.2565 61.0581 25.9383C60.4111 26.799 60.5151 27.9712 59.7347 28.7404C59.6187 28.8543 59.6266 29.0225 59.7856 29.1198C59.9923 29.2465 60.1841 29.1538 60.2156 28.9508C60.3531 28.0735 61.0535 27.4568 61.2656 26.6222C61.3555 26.2701 61.4503 25.9619 61.9105 26.0315C62.1901 27.6573 60.9384 28.7677 60.5093 30.1557C60.4525 30.3396 59.7629 29.8442 60.013 30.4631C60.1348 30.765 60.5942 30.9149 60.962 30.5857Z" fill="black"/>
<path fill-rule="evenodd" clip-rule="evenodd" d="M86.5812 105.677C86.3517 106.309 86.5294 106.88 86.7316 107.428C86.838 107.716 86.9184 107.935 86.5729 108.055C86.2577 108.164 86.0639 107.942 85.952 107.702C85.6667 107.089 85.7375 106.405 85.9069 105.821C86.5526 103.59 87.7633 101.653 89.2565 99.8877C89.6997 99.3642 90.2249 98.8899 90.572 98.3088C91.2029 97.2526 92.2765 96.9514 93.3 96.6176C93.778 96.4614 93.8695 97.1026 93.9677 97.4476C94.0236 97.6452 93.8782 98.0284 93.7022 98.1435C92.001 99.2561 91.7273 101.329 90.5733 102.82C90.1931 103.311 90.3674 104.307 89.8762 104.959C89.4881 105.474 89.2789 106.119 88.5574 106.364C88.1411 106.505 88.4563 107.041 88.2683 107.36C88.1717 107.524 88.1125 107.72 87.9071 107.747C87.7025 107.773 87.4444 107.598 87.4813 107.468C87.7294 106.588 86.691 106.364 86.5812 105.677Z" fill="black"/>
<path fill-rule="evenodd" clip-rule="evenodd" d="M43.7828 82.9958C43.731 83.1171 43.6792 83.2381 43.6283 83.3582C42.1343 84.6749 40.9289 86.2626 39.7592 87.8428C38.1501 90.0165 36.695 92.3124 35.2937 94.6286C34.1079 96.589 32.5952 98.3506 31.7635 100.534C31.4259 101.421 30.8659 102.23 29.8884 102.835C29.6581 101.5 30.508 100.645 30.998 99.7047C32.2887 97.2257 33.919 94.9542 35.5224 92.6744C38.4151 88.5618 41.1327 84.3096 44.7379 80.7454C44.9442 80.5416 45.109 80.2612 45.6053 80.4128C45.2814 81.4922 44.2458 82.0589 43.7828 82.9958Z" fill="black"/>
<path fill-rule="evenodd" clip-rule="evenodd" d="M87.5652 67.2489C87.1216 67.5741 87.6443 68.4522 86.965 68.3093C86.3859 68.1871 86.5951 67.4809 86.7405 67.0327C87.643 64.2576 89.422 62.204 91.998 60.8591C92.3881 60.6553 92.9543 60.3442 93.3151 60.9212C93.6357 61.4327 93.1399 61.7438 92.857 62.064C91.6712 63.4076 90.5462 64.7795 90.25 66.6314C90.1759 67.0965 89.7985 67.2643 89.4142 67.4217C89.28 67.4767 89.1449 67.5666 89.0497 67.6747C88.2971 68.5305 87.7292 68.6208 87.5652 67.2489Z" fill="black"/>
<path fill-rule="evenodd" clip-rule="evenodd" d="M64.3404 17.4521C64.2161 18.8343 63.0344 19.5973 62.392 20.6734C61.9161 21.4703 61.528 22.3745 60.7675 23.0074C60.5782 23.1648 60.5024 23.5119 60.1901 23.3363C59.9416 23.1963 59.8911 22.913 60.0588 22.6466C61.069 21.0449 62.0515 19.4237 63.2585 17.9571C63.5435 17.6108 63.9929 17.6203 64.3727 17.4795L64.3404 17.4521Z" fill="black"/>
<path fill-rule="evenodd" clip-rule="evenodd" d="M64.3727 17.4797C64.2315 17.1736 64.0674 16.8891 64.3243 16.5399C65.7793 14.5596 67.2042 12.5561 68.8908 10.7589C69.0213 10.6197 69.0934 10.29 69.3883 10.4963C69.5751 10.6272 69.5287 10.8297 69.4007 10.9917C67.7518 13.0763 66.1517 15.1966 64.654 17.3936C64.6117 17.4553 64.4477 17.4346 64.3404 17.4524L64.3727 17.4797Z" fill="black"/>
<path fill-rule="evenodd" clip-rule="evenodd" d="M58.3719 29.0937C58.3694 29.1285 58.3644 29.1613 58.3578 29.1907C58.1586 29.6947 57.7237 30.1027 57.761 30.705C57.7742 30.9195 57.8028 31.2244 57.476 31.1962C57.184 31.171 57.2233 30.8997 57.249 30.6685C57.4781 28.6137 58.1764 26.6922 58.9547 24.7997C59.0885 24.475 59.4799 24.1262 59.8373 24.2927C60.2607 24.4899 59.9409 24.9082 59.791 25.1534C59.045 26.3733 58.7198 27.7356 58.3719 29.0937Z" fill="black"/>
<path fill-rule="evenodd" clip-rule="evenodd" d="M69.9969 12.4442C69.9878 12.4798 69.9774 12.5146 69.9654 12.5486C70.4418 12.0644 71.2706 11.921 71.3509 11.028C71.3642 10.8806 71.7395 10.3413 72.1189 10.6739C72.4796 10.9899 72.0944 11.3238 71.8857 11.5213C70.9421 12.4148 70.1932 13.4242 69.7645 14.7795C69.4021 14.3561 68.8608 14.0799 69.5815 13.5658C69.9687 13.2896 69.8138 12.8021 69.9969 12.4442Z" fill="black"/>
<path fill-rule="evenodd" clip-rule="evenodd" d="M65.2209 22.2896C65.3584 22.0862 65.4959 21.8824 65.633 21.6791C65.7983 21.549 65.9636 21.4194 66.1284 21.2893C66.1868 21.3295 66.2444 21.3697 66.3024 21.4098C65.9226 22.0879 65.5423 22.7655 65.1625 23.4436C65.0813 23.4171 65.0001 23.3901 64.9189 23.3632C65.0196 23.0058 65.1202 22.6475 65.2209 22.2896Z" fill="black"/>
<path fill-rule="evenodd" clip-rule="evenodd" d="M61.4025 30.0002C61.1813 29.222 61.7484 28.7054 62.0458 28.1053C62.3374 27.5167 62.677 26.9517 62.996 26.376C63.1086 26.6688 63.0821 26.9281 62.9189 27.2147C62.3958 28.1334 61.9054 29.0704 61.4025 30.0002Z" fill="black"/>
</svg>
